{
	"asset":{
		"version":"2.0",
		"generator":"Created using the official Cinema 4D glTF Exporter 1.000x284978"
	},
	"scenes":[{
		"nodes":[0]
	}],
	"samplers":[{
		"magFilter":9729,
		"minFilter":9729,
		"wrapS":10497,
		"wrapT":10497
	}],
	"nodes":[{
		"name":"fish",
		"translation":[0.0,
		0.0,
		0.0],
		"rotation":[0.0,
		0.0,
		0.0,
		-1.0],
		"scale":[1.0,
		1.0,
		1.0],
		"mesh":0
	}],
	"meshes":[{
		"name":"fish",
		"primitives":[{
			"targets":[{
				"POSITION":3
			},
			{
				"POSITION":4
			},
			{
				"POSITION":5
			},
			{
				"POSITION":6
			},
			{
				"POSITION":7
			},
			{
				"POSITION":8
			},
			{
				"POSITION":9
			},
			{
				"POSITION":10
			},
			{
				"POSITION":11
			},
			{
				"POSITION":12
			},
			{
				"POSITION":13
			},
			{
				"POSITION":14
			},
			{
				"POSITION":15
			},
			{
				"POSITION":16
			},
			{
				"POSITION":17
			},
			{
				"POSITION":18
			},
			{
				"POSITION":19
			},
			{
				"POSITION":20
			},
			{
				"POSITION":21
			},
			{
				"POSITION":22
			},
			{
				"POSITION":23
			},
			{
				"POSITION":24
			},
			{
				"POSITION":25
			},
			{
				"POSITION":26
			},
			{
				"POSITION":27
			},
			{
				"POSITION":28
			},
			{
				"POSITION":29
			},
			{
				"POSITION":30
			},
			{
				"POSITION":31
			},
			{
				"POSITION":32
			},
			{
				"POSITION":33
			},
			{
				"POSITION":34
			},
			{
				"POSITION":35
			},
			{
				"POSITION":36
			},
			{
				"POSITION":37
			},
			{
				"POSITION":38
			},
			{
				"POSITION":39
			},
			{
				"POSITION":40
			},
			{
				"POSITION":41
			},
			{
				"POSITION":42
			},
			{
				"POSITION":43
			},
			{
				"POSITION":44
			},
			{
				"POSITION":45
			},
			{
				"POSITION":46
			},
			{
				"POSITION":47
			},
			{
				"POSITION":48
			},
			{
				"POSITION":49
			},
			{
				"POSITION":50
			},
			{
				"POSITION":51
			},
			{
				"POSITION":52
			},
			{
				"POSITION":53
			}],
			"attributes":{
				"POSITION":1,
				"TEXCOORD_0":2
			},
			"indices":0,
			"material":0
		}],
		"extras":{
			"targetNames":["curve0",
			"curve1",
			"curve2",
			"curve3",
			"curve4",
			"curve5",
			"curve6",
			"curve7",
			"curve8",
			"curve9",
			"curve10",
			"curve11",
			"curve12",
			"curve13",
			"curve14",
			"curve15",
			"curve16",
			"curve17",
			"curve18",
			"curve19",
			"curve20",
			"curve21",
			"curve22",
			"curve23",
			"curve24",
			"curve25",
			"curve26",
			"curve27",
			"curve28",
			"curve29",
			"curve30",
			"curve31",
			"curve32",
			"curve33",
			"curve34",
			"curve35",
			"curve36",
			"curve37",
			"curve38",
			"curve39",
			"curve40",
			"curve41",
			"curve42",
			"curve43",
			"curve44",
			"curve45",
			"curve46",
			"curve47",
			"curve48",
			"curve49",
			"curve50"]
		},
		"weights":[0.0,
		0.0,
		0.0,
		0.0,
		0.0,
		0.0,
		0.0,
		0.0,
		0.0,
		0.0,
		0.0,
		0.0,
		0.0,
		0.0,
		0.0,
		0.0,
		0.0,
		0.0,
		0.0,
		0.0,
		0.0,
		0.0,
		0.0,
		0.0,
		0.0,
		0.0,
		0.0,
		0.0,
		0.0,
		0.0,
		0.0,
		0.0,
		0.0,
		0.0,
		0.0,
		0.0,
		0.0,
		0.0,
		0.0,
		0.0,
		0.0,
		0.0,
		0.0,
		0.0,
		0.0,
		0.0,
		0.0,
		0.0,
		0.0,
		0.0,
		0.0]
	}],
	"accessors":[{
		"bufferView":0,
		"type":"SCALAR",
		"componentType":5123,
		"count":1446,
		"byteOffset":0,
		"min":[0],
		"max":[476]
	},
	{
		"bufferView":1,
		"type":"VEC3",
		"componentType":5126,
		"count":477,
		"byteOffset":0,
		"min":[-48.89402770996094,
		31.853418350219728,
		-170.37066650390626],
		"max":[48.89455795288086,
		235.81996154785157,
		167.78872680664063]
	},
	{
		"bufferView":1,
		"type":"VEC2",
		"componentType":5126,
		"count":477,
		"byteOffset":12,
		"min":[0.0003257932257838547,
		0.0003257932257838547],
		"max":[0.9990243911743164,
		0.9606581926345825]
	},
	{
		"bufferView":2,
		"type":"VEC3",
		"componentType":5126,
		"count":477,
		"byteOffset":0,
		"min":[0.0,
		0.0,
		0.0],
		"max":[0.0,
		0.0,
		0.0]
	},
	{
		"bufferView":3,
		"type":"VEC3",
		"componentType":5126,
		"count":477,
		"byteOffset":0,
		"min":[-5.517738342285156,
		-0.15999822318553925,
		-0.8854025602340698],
		"max":[4.998851776123047,
		0.35786786675453188,
		0.6734708547592163]
	},
	{
		"bufferView":4,
		"type":"VEC3",
		"componentType":5126,
		"count":477,
		"byteOffset":0,
		"min":[-10.680432319641114,
		-0.3023132383823395,
		-2.242856979370117],
		"max":[9.636422157287598,
		0.6460753083229065,
		1.2419097423553467]
	},
	{
		"bufferView":5,
		"type":"VEC3",
		"componentType":5126,
		"count":477,
		"byteOffset":0,
		"min":[-15.159902572631836,
		-0.4129684269428253,
		-3.83301043510437],
		"max":[13.599939346313477,
		0.8473862409591675,
		1.7848846912384034]
	},
	{
		"bufferView":6,
		"type":"VEC3",
		"componentType":5126,
		"count":477,
		"byteOffset":0,
		"min":[-18.677494049072267,
		-0.49107781052589419,
		-5.373344421386719],
		"max":[16.656291961669923,
		0.957668662071228,
		2.217970371246338]
	},
	{
		"bufferView":7,
		"type":"VEC3",
		"componentType":5126,
		"count":477,
		"byteOffset":0,
		"min":[-21.02002716064453,
		-0.5882137417793274,
		-6.751152992248535],
		"max":[18.657756805419923,
		0.9750508069992065,
		2.5089097023010256]
	},
	{
		"bufferView":8,
		"type":"VEC3",
		"componentType":5126,
		"count":477,
		"byteOffset":0,
		"min":[-22.048927307128908,
		-0.7952865362167358,
		-7.405885219573975],
		"max":[19.527162551879884,
		0.9008193612098694,
		2.637202262878418]
	},
	{
		"bufferView":9,
		"type":"VEC3",
		"componentType":5126,
		"count":477,
		"byteOffset":0,
		"min":[-21.70429229736328,
		-0.977729856967926,
		-7.183210372924805],
		"max":[19.236644744873048,
		0.7492765784263611,
		2.5941998958587648]
	},
	{
		"bufferView":10,
		"type":"VEC3",
		"componentType":5126,
		"count":477,
		"byteOffset":0,
		"min":[-20.006120681762697,
		-1.0800001621246338,
		-6.13555383682251],
		"max":[17.795103073120118,
		0.5592243075370789,
		2.3827717304229738]
	},
	{
		"bufferView":11,
		"type":"VEC3",
		"componentType":5126,
		"count":477,
		"byteOffset":0,
		"min":[-17.05392837524414,
		-1.05237877368927,
		-4.620190620422363],
		"max":[15.252643585205079,
		0.44876012206077578,
		2.0174448490142824]
	},
	{
		"bufferView":12,
		"type":"VEC3",
		"componentType":5126,
		"count":477,
		"byteOffset":0,
		"min":[-13.024370193481446,
		-0.8747746348381043,
		-3.0272510051727297],
		"max":[11.719066619873047,
		0.36089929938316347,
		1.5246931314468384]
	},
	{
		"bufferView":13,
		"type":"VEC3",
		"componentType":5126,
		"count":477,
		"byteOffset":0,
		"min":[-8.164901733398438,
		-0.5693023800849915,
		-1.517720103263855],
		"max":[7.383965492248535,
		0.23419420421123506,
		0.942088782787323]
	},
	{
		"bufferView":14,
		"type":"VEC3",
		"componentType":5126,
		"count":477,
		"byteOffset":0,
		"min":[-2.7813854217529299,
		-0.1930031180381775,
		-0.39441490173339846],
		"max":[2.522622585296631,
		0.08114881813526154,
		0.3372659385204315]
	},
	{
		"bufferView":15,
		"type":"VEC3",
		"componentType":5126,
		"count":477,
		"byteOffset":0,
		"min":[-2.522622585296631,
		-0.08114906400442124,
		-0.3730030357837677],
		"max":[2.7813854217529299,
		0.18566571176052094,
		0.36288219690322878]
	},
	{
		"bufferView":16,
		"type":"VEC3",
		"componentType":5126,
		"count":477,
		"byteOffset":0,
		"min":[-7.383965492248535,
		-0.23437809944152833,
		-1.5167343616485596],
		"max":[8.164901733398438,
		0.5122265815734863,
		0.943122923374176]
	},
	{
		"bufferView":17,
		"type":"VEC3",
		"componentType":5126,
		"count":477,
		"byteOffset":0,
		"min":[-11.719066619873047,
		-0.3621029853820801,
		-3.0246636867523195],
		"max":[13.024370193481446,
		0.7579752206802368,
		1.5273678302764893]
	},
	{
		"bufferView":18,
		"type":"VEC3",
		"componentType":5126,
		"count":477,
		"byteOffset":0,
		"min":[-15.252643585205079,
		-0.4572414755821228,
		-4.615694046020508],
		"max":[17.05392837524414,
		0.9140039682388306,
		2.0220675468444826]
	},
	{
		"bufferView":19,
		"type":"VEC3",
		"componentType":5126,
		"count":477,
		"byteOffset":0,
		"min":[-17.795103073120118,
		-0.5298472046852112,
		-6.13555383682251],
		"max":[20.006120681762697,
		0.9780498743057251,
		2.3891642093658449]
	},
	{
		"bufferView":20,
		"type":"VEC3",
		"componentType":5126,
		"count":477,
		"byteOffset":0,
		"min":[-19.236644744873048,
		-0.6917731761932373,
		-7.183210372924805],
		"max":[21.70429229736328,
		0.9489088654518127,
		2.60174298286438]
	},
	{
		"bufferView":21,
		"type":"VEC3",
		"componentType":5126,
		"count":477,
		"byteOffset":0,
		"min":[-19.527162551879884,
		-0.8929151296615601,
		-7.405885219573975],
		"max":[22.048927307128908,
		0.833055853843689,
		2.6449906826019289]
	},
	{
		"bufferView":22,
		"type":"VEC3",
		"componentType":5126,
		"count":477,
		"byteOffset":0,
		"min":[-18.657756805419923,
		-1.0424429178237916,
		-6.751152992248535],
		"max":[21.02002716064453,
		0.6554952263832092,
		2.515977144241333]
	},
	{
		"bufferView":23,
		"type":"VEC3",
		"componentType":5126,
		"count":477,
		"byteOffset":0,
		"min":[-16.656291961669923,
		-1.0846257209777833,
		-5.373344421386719],
		"max":[18.677494049072267,
		0.48318713903427126,
		2.2235300540924074]
	},
	{
		"bufferView":24,
		"type":"VEC3",
		"componentType":5126,
		"count":477,
		"byteOffset":0,
		"min":[-13.599939346313477,
		-0.9819626808166504,
		-3.829477310180664],
		"max":[15.159902572631836,
		0.41020864248275759,
		1.788524866104126]
	},
	{
		"bufferView":25,
		"type":"VEC3",
		"componentType":5126,
		"count":477,
		"byteOffset":0,
		"min":[-9.636422157287598,
		-0.7350634932518005,
		-2.2411372661590578],
		"max":[10.680432319641114,
		0.30176183581352236,
		1.2436970472335816]
	},
	{
		"bufferView":26,
		"type":"VEC3",
		"componentType":5126,
		"count":477,
		"byteOffset":0,
		"min":[-4.998851776123047,
		-0.3856689929962158,
		-0.8849698305130005],
		"max":[5.517738342285156,
		0.15996472537517548,
		0.651512622833252]
	},
	{
		"bufferView":27,
		"type":"VEC3",
		"componentType":5126,
		"count":477,
		"byteOffset":0,
		"min":[-9.425075364534897e-15,
		0.0,
		0.0],
		"max":[3.552713678800501e-15,
		0.0,
		0.0]
	},
	{
		"bufferView":28,
		"type":"VEC3",
		"componentType":5126,
		"count":477,
		"byteOffset":0,
		"min":[-5.517738342285156,
		-0.15999822318553925,
		-0.8854025602340698],
		"max":[4.998851776123047,
		0.35786786675453188,
		0.6734708547592163]
	},
	{
		"bufferView":29,
		"type":"VEC3",
		"componentType":5126,
		"count":477,
		"byteOffset":0,
		"min":[-1.07987380027771,
		-0.39484378695487978,
		-2.4103212356567385],
		"max":[7.5688700675964359,
		0.18954704701900483,
		1.4053069353103638]
	},
	{
		"bufferView":30,
		"type":"VEC3",
		"componentType":5126,
		"count":477,
		"byteOffset":0,
		"min":[-2.6865170001983644,
		-1.3021315336227418,
		-8.452574729919434],
		"max":[27.316120147705079,
		0.4780988395214081,
		3.874891519546509]
	},
	{
		"bufferView":31,
		"type":"VEC3",
		"componentType":5126,
		"count":477,
		"byteOffset":0,
		"min":[-2.8595669269561769,
		-1.803099513053894,
		-13.520404815673829],
		"max":[52.18492126464844,
		0.675542950630188,
		5.419247627258301]
	},
	{
		"bufferView":32,
		"type":"VEC3",
		"componentType":5126,
		"count":477,
		"byteOffset":0,
		"min":[-2.6167240142822267,
		-0.9859796166419983,
		-11.71597671508789],
		"max":[74.3951187133789,
		0.5598515272140503,
		6.482105255126953]
	},
	{
		"bufferView":33,
		"type":"VEC3",
		"componentType":5126,
		"count":477,
		"byteOffset":0,
		"min":[-1.3675765991210938,
		-0.8970785140991211,
		-11.73493766784668],
		"max":[88.86085510253906,
		0.4977229833602905,
		6.887532711029053]
	},
	{
		"bufferView":34,
		"type":"VEC3",
		"componentType":5126,
		"count":477,
		"byteOffset":0,
		"min":[-0.15411926805973054,
		-0.9779183864593506,
		-13.045877456665039],
		"max":[93.73602294921875,
		0.5352898240089417,
		6.76460075378418]
	},
	{
		"bufferView":35,
		"type":"VEC3",
		"componentType":5126,
		"count":477,
		"byteOffset":0,
		"min":[-0.15411926805973054,
		-0.9779183864593506,
		-13.045877456665039],
		"max":[93.73602294921875,
		0.5352898240089417,
		6.192371368408203]
	},
	{
		"bufferView":36,
		"type":"VEC3",
		"componentType":5126,
		"count":477,
		"byteOffset":0,
		"min":[-0.15411926805973054,
		-0.9779183864593506,
		-13.125693321228028],
		"max":[93.73602294921875,
		0.6120671033859253,
		5.308873653411865]
	},
	{
		"bufferView":37,
		"type":"VEC3",
		"componentType":5126,
		"count":477,
		"byteOffset":0,
		"min":[-1.2347182035446168,
		-1.4957783222198487,
		-16.66534423828125],
		"max":[93.73602294921875,
		0.7816274762153626,
		4.821459770202637]
	},
	{
		"bufferView":38,
		"type":"VEC3",
		"componentType":5126,
		"count":477,
		"byteOffset":0,
		"min":[-0.15411926805973054,
		-0.9779183864593506,
		-13.125693321228028],
		"max":[93.73602294921875,
		0.6120671033859253,
		5.375158786773682]
	},
	{
		"bufferView":39,
		"type":"VEC3",
		"componentType":5126,
		"count":477,
		"byteOffset":0,
		"min":[-0.15411926805973054,
		-0.9779183864593506,
		-13.045877456665039],
		"max":[93.73602294921875,
		0.5352898240089417,
		6.374843120574951]
	},
	{
		"bufferView":40,
		"type":"VEC3",
		"componentType":5126,
		"count":477,
		"byteOffset":0,
		"min":[-0.2595213055610657,
		-0.9779183864593506,
		-13.045877456665039],
		"max":[93.73602294921875,
		0.5352898240089417,
		6.829708099365234]
	},
	{
		"bufferView":41,
		"type":"VEC3",
		"componentType":5126,
		"count":477,
		"byteOffset":0,
		"min":[-1.4226499795913697,
		-0.9779183864593506,
		-13.045877456665039],
		"max":[93.73602294921875,
		0.5352898240089417,
		7.1374640464782719]
	},
	{
		"bufferView":42,
		"type":"VEC3",
		"componentType":5126,
		"count":477,
		"byteOffset":0,
		"min":[-1.8033928871154786,
		-0.9779183864593506,
		-13.125693321228028],
		"max":[93.73602294921875,
		0.6120671033859253,
		7.21002197265625]
	},
	{
		"bufferView":43,
		"type":"VEC3",
		"componentType":5126,
		"count":477,
		"byteOffset":0,
		"min":[-1.5401856899261475,
		-1.4957783222198487,
		-16.66534423828125],
		"max":[93.73602294921875,
		0.7816274762153626,
		7.161768913269043]
	},
	{
		"bufferView":44,
		"type":"VEC3",
		"componentType":5126,
		"count":477,
		"byteOffset":0,
		"min":[-0.9744126796722412,
		-0.9779183864593506,
		-13.125693321228028],
		"max":[93.73602294921875,
		0.6120671033859253,
		7.029345512390137]
	},
	{
		"bufferView":45,
		"type":"VEC3",
		"componentType":5126,
		"count":477,
		"byteOffset":0,
		"min":[-0.410983681678772,
		-0.9225544929504395,
		-12.146383285522461],
		"max":[90.42082977294922,
		0.5096161961555481,
		6.708898067474365]
	},
	{
		"bufferView":46,
		"type":"VEC3",
		"componentType":5126,
		"count":477,
		"byteOffset":0,
		"min":[-0.13264694809913636,
		-0.7749489545822144,
		-9.786894798278809],
		"max":[81.04869079589844,
		0.44623202085494997,
		6.212493896484375]
	},
	{
		"bufferView":47,
		"type":"VEC3",
		"componentType":5126,
		"count":477,
		"byteOffset":0,
		"min":[-0.10889986902475357,
		-0.5752636194229126,
		-6.711820602416992],
		"max":[66.82489776611328,
		0.3658757209777832,
		5.328026294708252]
	},
	{
		"bufferView":48,
		"type":"VEC3",
		"componentType":5126,
		"count":477,
		"byteOffset":0,
		"min":[-0.0803852453827858,
		-0.37027135491371157,
		-4.092507362365723],
		"max":[49.52670669555664,
		0.269657701253891,
		4.122307777404785]
	},
	{
		"bufferView":49,
		"type":"VEC3",
		"componentType":5126,
		"count":477,
		"byteOffset":0,
		"min":[-0.050992678850889209,
		-0.19911883771419526,
		-2.085606575012207],
		"max":[31.50826072692871,
		0.17078633606433869,
		2.7426037788391115]
	},
	{
		"bufferView":50,
		"type":"VEC3",
		"componentType":5126,
		"count":477,
		"byteOffset":0,
		"min":[-0.02503468468785286,
		-0.08446282148361206,
		-0.8290619254112244],
		"max":[15.49170970916748,
		0.08372906595468521,
		1.4104316234588624]
	},
	{
		"bufferView":51,
		"type":"VEC3",
		"componentType":5126,
		"count":477,
		"byteOffset":0,
		"min":[-0.00678336713463068,
		-0.023271676152944566,
		-0.22341366112232209],
		"max":[4.199436664581299,
		0.022664662450551988,
		0.3992348611354828]
	},
	{
		"bufferView":52,
		"type":"VEC3",
		"componentType":5126,
		"count":477,
		"byteOffset":0,
		"min":[0.0,
		0.0,
		0.0],
		"max":[0.0,
		0.0,
		0.0]
	},
	{
		"bufferView":53,
		"type":"SCALAR",
		"componentType":5126,
		"count":51,
		"byteOffset":0,
		"min":[0.0],
		"max":[2.0]
	},
	{
		"bufferView":53,
		"type":"SCALAR",
		"componentType":5126,
		"count":2601,
		"byteOffset":204,
		"min":[0.0],
		"max":[1.0]
	}],
	"bufferViews":[{
		"buffer":0,
		"byteOffset":0,
		"byteLength":2892,
		"target":34963
	},
	{
		"buffer":0,
		"byteOffset":2892,
		"byteLength":9540,
		"target":34962,
		"byteStride":20
	},
	{
		"buffer":0,
		"byteOffset":12432,
		"byteLength":5724,
		"target":34962
	},
	{
		"buffer":0,
		"byteOffset":18156,
		"byteLength":5724,
		"target":34962
	},
	{
		"buffer":0,
		"byteOffset":23880,
		"byteLength":5724,
		"target":34962
	},
	{
		"buffer":0,
		"byteOffset":29604,
		"byteLength":5724,
		"target":34962
	},
	{
		"buffer":0,
		"byteOffset":35328,
		"byteLength":5724,
		"target":34962
	},
	{
		"buffer":0,
		"byteOffset":41052,
		"byteLength":5724,
		"target":34962
	},
	{
		"buffer":0,
		"byteOffset":46776,
		"byteLength":5724,
		"target":34962
	},
	{
		"buffer":0,
		"byteOffset":52500,
		"byteLength":5724,
		"target":34962
	},
	{
		"buffer":0,
		"byteOffset":58224,
		"byteLength":5724,
		"target":34962
	},
	{
		"buffer":0,
		"byteOffset":63948,
		"byteLength":5724,
		"target":34962
	},
	{
		"buffer":0,
		"byteOffset":69672,
		"byteLength":5724,
		"target":34962
	},
	{
		"buffer":0,
		"byteOffset":75396,
		"byteLength":5724,
		"target":34962
	},
	{
		"buffer":0,
		"byteOffset":81120,
		"byteLength":5724,
		"target":34962
	},
	{
		"buffer":0,
		"byteOffset":86844,
		"byteLength":5724,
		"target":34962
	},
	{
		"buffer":0,
		"byteOffset":92568,
		"byteLength":5724,
		"target":34962
	},
	{
		"buffer":0,
		"byteOffset":98292,
		"byteLength":5724,
		"target":34962
	},
	{
		"buffer":0,
		"byteOffset":104016,
		"byteLength":5724,
		"target":34962
	},
	{
		"buffer":0,
		"byteOffset":109740,
		"byteLength":5724,
		"target":34962
	},
	{
		"buffer":0,
		"byteOffset":115464,
		"byteLength":5724,
		"target":34962
	},
	{
		"buffer":0,
		"byteOffset":121188,
		"byteLength":5724,
		"target":34962
	},
	{
		"buffer":0,
		"byteOffset":126912,
		"byteLength":5724,
		"target":34962
	},
	{
		"buffer":0,
		"byteOffset":132636,
		"byteLength":5724,
		"target":34962
	},
	{
		"buffer":0,
		"byteOffset":138360,
		"byteLength":5724,
		"target":34962
	},
	{
		"buffer":0,
		"byteOffset":144084,
		"byteLength":5724,
		"target":34962
	},
	{
		"buffer":0,
		"byteOffset":149808,
		"byteLength":5724,
		"target":34962
	},
	{
		"buffer":0,
		"byteOffset":155532,
		"byteLength":5724,
		"target":34962
	},
	{
		"buffer":0,
		"byteOffset":161256,
		"byteLength":5724,
		"target":34962
	},
	{
		"buffer":0,
		"byteOffset":166980,
		"byteLength":5724,
		"target":34962
	},
	{
		"buffer":0,
		"byteOffset":172704,
		"byteLength":5724,
		"target":34962
	},
	{
		"buffer":0,
		"byteOffset":178428,
		"byteLength":5724,
		"target":34962
	},
	{
		"buffer":0,
		"byteOffset":184152,
		"byteLength":5724,
		"target":34962
	},
	{
		"buffer":0,
		"byteOffset":189876,
		"byteLength":5724,
		"target":34962
	},
	{
		"buffer":0,
		"byteOffset":195600,
		"byteLength":5724,
		"target":34962
	},
	{
		"buffer":0,
		"byteOffset":201324,
		"byteLength":5724,
		"target":34962
	},
	{
		"buffer":0,
		"byteOffset":207048,
		"byteLength":5724,
		"target":34962
	},
	{
		"buffer":0,
		"byteOffset":212772,
		"byteLength":5724,
		"target":34962
	},
	{
		"buffer":0,
		"byteOffset":218496,
		"byteLength":5724,
		"target":34962
	},
	{
		"buffer":0,
		"byteOffset":224220,
		"byteLength":5724,
		"target":34962
	},
	{
		"buffer":0,
		"byteOffset":229944,
		"byteLength":5724,
		"target":34962
	},
	{
		"buffer":0,
		"byteOffset":235668,
		"byteLength":5724,
		"target":34962
	},
	{
		"buffer":0,
		"byteOffset":241392,
		"byteLength":5724,
		"target":34962
	},
	{
		"buffer":0,
		"byteOffset":247116,
		"byteLength":5724,
		"target":34962
	},
	{
		"buffer":0,
		"byteOffset":252840,
		"byteLength":5724,
		"target":34962
	},
	{
		"buffer":0,
		"byteOffset":258564,
		"byteLength":5724,
		"target":34962
	},
	{
		"buffer":0,
		"byteOffset":264288,
		"byteLength":5724,
		"target":34962
	},
	{
		"buffer":0,
		"byteOffset":270012,
		"byteLength":5724,
		"target":34962
	},
	{
		"buffer":0,
		"byteOffset":275736,
		"byteLength":5724,
		"target":34962
	},
	{
		"buffer":0,
		"byteOffset":281460,
		"byteLength":5724,
		"target":34962
	},
	{
		"buffer":0,
		"byteOffset":287184,
		"byteLength":5724,
		"target":34962
	},
	{
		"buffer":0,
		"byteOffset":292908,
		"byteLength":5724,
		"target":34962
	},
	{
		"buffer":0,
		"byteOffset":298632,
		"byteLength":5724,
		"target":34962
	},
	{
		"buffer":1,
		"byteOffset":0,
		"byteLength":10608
	}],
	"buffers":[{
		"uri":"data:application/octet-stream;base64,",
		"byteLength":304356
	},
	{
		"uri":"data:application/octet-stream;base64,",
		"byteLength":10608
	}],
	"images":[{
		"uri":"data:image/jpeg;base64,"
	}],
	"textures":[{
		"sampler":0,
		"source":0
	}],
	"materials":[{
		"pbrMetallicRoughness":{
			"baseColorTexture":{
				"index":0
			},
			"baseColorFactor":[0.8,
			0.8,
			0.8,
			1.0],
			"metallicFactor":0.0,
			"roughnessFactor":0.5
		},
		"emissiveFactor":[0.0,
		0.0,
		0.0],
		"alphaMode":"OPAQUE",
		"doubleSided":true,
		"name":"final"
	}],
	"animations":[{
		"samplers":[{
			"input":54,
			"interpolation":"LINEAR",
			"output":55
		}],
		"channels":[{
			"sampler":0,
			"target":{
				"node":0,
				"path":"weights"
			}
		}]
	}]
}