{
	"asset":{
		"version":"2.0",
		"generator":"Created using the official Cinema 4D glTF Exporter 1.000x284978"
	},
	"scenes":[{
		"nodes":[0]
	}],
	"meshes":[{
		"name":"Sphere.1",
		"primitives":[{
			"attributes":{
				"POSITION":1,
				"TEXCOORD_0":2
			},
			"indices":0,
			"material":0
		}]
	}],
	"nodes":[{
		"name":"Sphere.1",
		"translation":[0.0,
		0.0,
		0.0],
		"rotation":[0.0,
		0.0,
		0.0,
		-1.0],
		"scale":[1.0,
		1.0,
		1.0],
		"mesh":0
	}],
	"accessors":[{
		"bufferView":0,
		"max":[8382],
		"type":"SCALAR",
		"componentType":5123,
		"count":48384,
		"byteOffset":0,
		"min":[0]
	},
	{
		"bufferView":1,
		"max":[50.0,
		50.0,
		50.0],
		"type":"VEC3",
		"componentType":5126,
		"count":8383,
		"byteOffset":0,
		"min":[-50.0,
		-50.0,
		-50.0]
	},
	{
		"bufferView":1,
		"max":[1.0,
		1.0],
		"type":"VEC2",
		"componentType":5126,
		"count":8383,
		"byteOffset":12,
		"min":[0.0,
		0.0]
	}],
	"bufferViews":[{
		"buffer":0,
		"byteOffset":0,
		"byteLength":96768,
		"target":34963
	},
	{
		"buffer":0,
		"byteOffset":96768,
		"byteLength":167660,
		"target":34962,
		"byteStride":20
	}],
	"buffers":[{
		"uri":"data:application/octet-stream;base64,",
		"byteLength":264428
	}],
	"materials":[{
		"pbrMetallicRoughness":{
			"baseColorFactor":[1.0,
			1.0,
			1.0,
			0.19999999999999996],
			"metallicFactor":1.0,
			"roughnessFactor":0.1
		},
		"emissiveFactor":[0.0,
		0.0,
		0.0],
		"alphaMode":"BLEND",
		"doubleSided":false,
		"name":"soapy"
	}]
}