{
	"buffers":[{
		"uri":"data:application/octet-stream;base64,",
		"byteLength":264428
	},
	{
		"uri":"data:application/octet-stream;base64,",
		"byteLength":2912
	},
	{
		"uri":"data:application/octet-stream;base64,",
		"byteLength":264428
	},
	{
		"uri":"data:application/octet-stream;base64,",
		"byteLength":2912
	},
	{
		"uri":"data:application/octet-stream;base64,",
		"byteLength":264428
	},
	{
		"uri":"data:application/octet-stream;base64,",
		"byteLength":2912
	},
	{
		"uri":"data:application/octet-stream;base64,",
		"byteLength":264428
	},
	{
		"uri":"data:application/octet-stream;base64,",
		"byteLength":2912
	},
	{
		"uri":"data:application/octet-stream;base64,",
		"byteLength":264428
	},
	{
		"uri":"data:application/octet-stream;base64,",
		"byteLength":2912
	}],
	"asset":{
		"version":"2.0",
		"generator":"Created using the official Cinema 4D glTF Exporter 1.000x284978"
	},
	"scenes":[{
		"nodes":[0,
		1,
		2,
		3,
		4]
	}],
	"nodes":[{
		"name":"animated.4",
		"translation":[13.307228088378907,
		2.334399700164795,
		-6.390394687652588],
		"rotation":[0.5,
		0.5,
		0.5,
		-0.5],
		"scale":[0.0,
		0.0,
		0.0],
		"mesh":0
	},
	{
		"name":"animated.3",
		"translation":[-0.49921107292175295,
		2.334399700164795,
		-11.431805610656739],
		"rotation":[0.5,
		0.5,
		0.5,
		-0.5],
		"scale":[0.0,
		0.0,
		0.0],
		"mesh":1
	},
	{
		"name":"animated.2",
		"translation":[13.307228088378907,
		2.334399700164795,
		-6.390394687652588],
		"rotation":[0.5,
		0.5,
		0.5,
		-0.5],
		"scale":[0.0,
		0.0,
		0.0],
		"mesh":2
	},
	{
		"name":"animated.1",
		"translation":[-24.832534790039064,
		2.334399700164795,
		-14.484125137329102],
		"rotation":[0.5,
		0.5,
		0.5,
		-0.5],
		"scale":[0.0,
		0.0,
		0.0],
		"mesh":3
	},
	{
		"name":"animated",
		"translation":[15.549154281616211,
		2.334399700164795,
		14.29202938079834],
		"rotation":[0.5,
		0.5,
		0.5,
		-0.5],
		"scale":[0.0,
		0.0,
		0.0],
		"mesh":4
	}],
	"meshes":[{
		"name":"animated.4",
		"primitives":[{
			"attributes":{
				"POSITION":1,
				"TEXCOORD_0":2
			},
			"indices":0,
			"material":0
		}]
	},
	{
		"name":"animated.3",
		"primitives":[{
			"attributes":{
				"POSITION":10,
				"TEXCOORD_0":11
			},
			"indices":9,
			"material":0
		}]
	},
	{
		"name":"animated.2",
		"primitives":[{
			"attributes":{
				"POSITION":19,
				"TEXCOORD_0":20
			},
			"indices":18,
			"material":0
		}]
	},
	{
		"name":"animated.1",
		"primitives":[{
			"attributes":{
				"POSITION":28,
				"TEXCOORD_0":29
			},
			"indices":27,
			"material":0
		}]
	},
	{
		"name":"animated",
		"primitives":[{
			"attributes":{
				"POSITION":37,
				"TEXCOORD_0":38
			},
			"indices":36,
			"material":0
		}]
	}],
	"accessors":[{
		"bufferView":0,
		"type":"SCALAR",
		"componentType":5123,
		"count":48384,
		"byteOffset":0,
		"min":[0],
		"max":[8382]
	},
	{
		"bufferView":1,
		"type":"VEC3",
		"componentType":5126,
		"count":8383,
		"byteOffset":0,
		"min":[-5.0,
		-5.0,
		-5.0],
		"max":[5.0,
		5.0,
		5.0]
	},
	{
		"bufferView":1,
		"type":"VEC2",
		"componentType":5126,
		"count":8383,
		"byteOffset":12,
		"min":[0.0,
		0.0],
		"max":[1.0,
		1.0]
	},
	{
		"bufferView":2,
		"type":"SCALAR",
		"componentType":5126,
		"count":56,
		"byteOffset":0,
		"min":[0.0],
		"max":[1.8333333730697632]
	},
	{
		"bufferView":2,
		"type":"VEC3",
		"componentType":5126,
		"count":56,
		"byteOffset":224,
		"min":[13.307228088378907,
		2.334399700164795,
		-6.390394687652588],
		"max":[13.307228088378907,
		41.49386978149414,
		-6.390394687652588]
	},
	{
		"bufferView":3,
		"type":"SCALAR",
		"componentType":5126,
		"count":56,
		"byteOffset":0,
		"min":[0.0],
		"max":[1.8333333730697632]
	},
	{
		"bufferView":3,
		"type":"VEC4",
		"componentType":5126,
		"count":56,
		"byteOffset":224,
		"min":[0.0,
		0.0,
		0.0,
		-1.0],
		"max":[0.5,
		0.5,
		0.5,
		-0.5]
	},
	{
		"bufferView":4,
		"type":"SCALAR",
		"componentType":5126,
		"count":56,
		"byteOffset":0,
		"min":[0.0],
		"max":[1.8333333730697632]
	},
	{
		"bufferView":4,
		"type":"VEC3",
		"componentType":5126,
		"count":56,
		"byteOffset":224,
		"min":[0.0,
		0.0,
		0.0],
		"max":[1.0,
		1.0,
		1.0]
	},
	{
		"bufferView":5,
		"type":"SCALAR",
		"componentType":5123,
		"count":48384,
		"byteOffset":0,
		"min":[0],
		"max":[8382]
	},
	{
		"bufferView":6,
		"type":"VEC3",
		"componentType":5126,
		"count":8383,
		"byteOffset":0,
		"min":[-5.0,
		-5.0,
		-5.0],
		"max":[5.0,
		5.0,
		5.0]
	},
	{
		"bufferView":6,
		"type":"VEC2",
		"componentType":5126,
		"count":8383,
		"byteOffset":12,
		"min":[0.0,
		0.0],
		"max":[1.0,
		1.0]
	},
	{
		"bufferView":7,
		"type":"SCALAR",
		"componentType":5126,
		"count":56,
		"byteOffset":0,
		"min":[0.0],
		"max":[1.8333333730697632]
	},
	{
		"bufferView":7,
		"type":"VEC3",
		"componentType":5126,
		"count":56,
		"byteOffset":224,
		"min":[-0.49921107292175295,
		2.334399700164795,
		-11.431805610656739],
		"max":[-0.49921107292175295,
		41.49386978149414,
		-11.431805610656739]
	},
	{
		"bufferView":8,
		"type":"SCALAR",
		"componentType":5126,
		"count":56,
		"byteOffset":0,
		"min":[0.0],
		"max":[1.8333333730697632]
	},
	{
		"bufferView":8,
		"type":"VEC4",
		"componentType":5126,
		"count":56,
		"byteOffset":224,
		"min":[0.0,
		0.0,
		0.0,
		-1.0],
		"max":[0.5,
		0.5,
		0.5,
		-0.5]
	},
	{
		"bufferView":9,
		"type":"SCALAR",
		"componentType":5126,
		"count":56,
		"byteOffset":0,
		"min":[0.0],
		"max":[1.8333333730697632]
	},
	{
		"bufferView":9,
		"type":"VEC3",
		"componentType":5126,
		"count":56,
		"byteOffset":224,
		"min":[0.0,
		0.0,
		0.0],
		"max":[1.0,
		1.0,
		1.0]
	},
	{
		"bufferView":10,
		"type":"SCALAR",
		"componentType":5123,
		"count":48384,
		"byteOffset":0,
		"min":[0],
		"max":[8382]
	},
	{
		"bufferView":11,
		"type":"VEC3",
		"componentType":5126,
		"count":8383,
		"byteOffset":0,
		"min":[-5.0,
		-5.0,
		-5.0],
		"max":[5.0,
		5.0,
		5.0]
	},
	{
		"bufferView":11,
		"type":"VEC2",
		"componentType":5126,
		"count":8383,
		"byteOffset":12,
		"min":[0.0,
		0.0],
		"max":[1.0,
		1.0]
	},
	{
		"bufferView":12,
		"type":"SCALAR",
		"componentType":5126,
		"count":56,
		"byteOffset":0,
		"min":[0.0],
		"max":[1.8333333730697632]
	},
	{
		"bufferView":12,
		"type":"VEC3",
		"componentType":5126,
		"count":56,
		"byteOffset":224,
		"min":[13.307228088378907,
		2.334399700164795,
		-6.390394687652588],
		"max":[13.307228088378907,
		41.49386978149414,
		-6.390394687652588]
	},
	{
		"bufferView":13,
		"type":"SCALAR",
		"componentType":5126,
		"count":56,
		"byteOffset":0,
		"min":[0.0],
		"max":[1.8333333730697632]
	},
	{
		"bufferView":13,
		"type":"VEC4",
		"componentType":5126,
		"count":56,
		"byteOffset":224,
		"min":[0.0,
		0.0,
		0.0,
		-1.0],
		"max":[0.5,
		0.5,
		0.5,
		-0.5]
	},
	{
		"bufferView":14,
		"type":"SCALAR",
		"componentType":5126,
		"count":56,
		"byteOffset":0,
		"min":[0.0],
		"max":[1.8333333730697632]
	},
	{
		"bufferView":14,
		"type":"VEC3",
		"componentType":5126,
		"count":56,
		"byteOffset":224,
		"min":[0.0,
		0.0,
		0.0],
		"max":[1.0,
		1.0,
		1.0]
	},
	{
		"bufferView":15,
		"type":"SCALAR",
		"componentType":5123,
		"count":48384,
		"byteOffset":0,
		"min":[0],
		"max":[8382]
	},
	{
		"bufferView":16,
		"type":"VEC3",
		"componentType":5126,
		"count":8383,
		"byteOffset":0,
		"min":[-5.0,
		-5.0,
		-5.0],
		"max":[5.0,
		5.0,
		5.0]
	},
	{
		"bufferView":16,
		"type":"VEC2",
		"componentType":5126,
		"count":8383,
		"byteOffset":12,
		"min":[0.0,
		0.0],
		"max":[1.0,
		1.0]
	},
	{
		"bufferView":17,
		"type":"SCALAR",
		"componentType":5126,
		"count":56,
		"byteOffset":0,
		"min":[0.0],
		"max":[1.8333333730697632]
	},
	{
		"bufferView":17,
		"type":"VEC3",
		"componentType":5126,
		"count":56,
		"byteOffset":224,
		"min":[-24.832534790039064,
		2.334399700164795,
		-14.484125137329102],
		"max":[-24.832534790039064,
		41.49386978149414,
		-14.484125137329102]
	},
	{
		"bufferView":18,
		"type":"SCALAR",
		"componentType":5126,
		"count":56,
		"byteOffset":0,
		"min":[0.0],
		"max":[1.8333333730697632]
	},
	{
		"bufferView":18,
		"type":"VEC4",
		"componentType":5126,
		"count":56,
		"byteOffset":224,
		"min":[0.0,
		0.0,
		0.0,
		-1.0],
		"max":[0.5,
		0.5,
		0.5,
		-0.5]
	},
	{
		"bufferView":19,
		"type":"SCALAR",
		"componentType":5126,
		"count":56,
		"byteOffset":0,
		"min":[0.0],
		"max":[1.8333333730697632]
	},
	{
		"bufferView":19,
		"type":"VEC3",
		"componentType":5126,
		"count":56,
		"byteOffset":224,
		"min":[0.0,
		0.0,
		0.0],
		"max":[1.0,
		1.0,
		1.0]
	},
	{
		"bufferView":20,
		"type":"SCALAR",
		"componentType":5123,
		"count":48384,
		"byteOffset":0,
		"min":[0],
		"max":[8382]
	},
	{
		"bufferView":21,
		"type":"VEC3",
		"componentType":5126,
		"count":8383,
		"byteOffset":0,
		"min":[-5.0,
		-5.0,
		-5.0],
		"max":[5.0,
		5.0,
		5.0]
	},
	{
		"bufferView":21,
		"type":"VEC2",
		"componentType":5126,
		"count":8383,
		"byteOffset":12,
		"min":[0.0,
		0.0],
		"max":[1.0,
		1.0]
	},
	{
		"bufferView":22,
		"type":"SCALAR",
		"componentType":5126,
		"count":56,
		"byteOffset":0,
		"min":[0.0],
		"max":[1.8333333730697632]
	},
	{
		"bufferView":22,
		"type":"VEC3",
		"componentType":5126,
		"count":56,
		"byteOffset":224,
		"min":[15.549154281616211,
		2.334399700164795,
		14.29202938079834],
		"max":[15.549154281616211,
		41.49386978149414,
		14.29202938079834]
	},
	{
		"bufferView":23,
		"type":"SCALAR",
		"componentType":5126,
		"count":56,
		"byteOffset":0,
		"min":[0.0],
		"max":[1.8333333730697632]
	},
	{
		"bufferView":23,
		"type":"VEC4",
		"componentType":5126,
		"count":56,
		"byteOffset":224,
		"min":[0.0,
		0.0,
		0.0,
		-1.0],
		"max":[0.5,
		0.5,
		0.5,
		-0.5]
	},
	{
		"bufferView":24,
		"type":"SCALAR",
		"componentType":5126,
		"count":56,
		"byteOffset":0,
		"min":[0.0],
		"max":[1.8333333730697632]
	},
	{
		"bufferView":24,
		"type":"VEC3",
		"componentType":5126,
		"count":56,
		"byteOffset":224,
		"min":[0.0,
		0.0,
		0.0],
		"max":[1.0,
		1.0,
		1.0]
	}],
	"bufferViews":[{
		"buffer":0,
		"byteOffset":0,
		"byteLength":96768,
		"target":34963
	},
	{
		"buffer":0,
		"byteOffset":96768,
		"byteLength":167660,
		"target":34962,
		"byteStride":20
	},
	{
		"buffer":1,
		"byteOffset":0,
		"byteLength":896
	},
	{
		"buffer":1,
		"byteOffset":896,
		"byteLength":1120
	},
	{
		"buffer":1,
		"byteOffset":2016,
		"byteLength":896
	},
	{
		"buffer":2,
		"byteOffset":0,
		"byteLength":96768,
		"target":34963
	},
	{
		"buffer":2,
		"byteOffset":96768,
		"byteLength":167660,
		"target":34962,
		"byteStride":20
	},
	{
		"buffer":3,
		"byteOffset":0,
		"byteLength":896
	},
	{
		"buffer":3,
		"byteOffset":896,
		"byteLength":1120
	},
	{
		"buffer":3,
		"byteOffset":2016,
		"byteLength":896
	},
	{
		"buffer":4,
		"byteOffset":0,
		"byteLength":96768,
		"target":34963
	},
	{
		"buffer":4,
		"byteOffset":96768,
		"byteLength":167660,
		"target":34962,
		"byteStride":20
	},
	{
		"buffer":5,
		"byteOffset":0,
		"byteLength":896
	},
	{
		"buffer":5,
		"byteOffset":896,
		"byteLength":1120
	},
	{
		"buffer":5,
		"byteOffset":2016,
		"byteLength":896
	},
	{
		"buffer":6,
		"byteOffset":0,
		"byteLength":96768,
		"target":34963
	},
	{
		"buffer":6,
		"byteOffset":96768,
		"byteLength":167660,
		"target":34962,
		"byteStride":20
	},
	{
		"buffer":7,
		"byteOffset":0,
		"byteLength":896
	},
	{
		"buffer":7,
		"byteOffset":896,
		"byteLength":1120
	},
	{
		"buffer":7,
		"byteOffset":2016,
		"byteLength":896
	},
	{
		"buffer":8,
		"byteOffset":0,
		"byteLength":96768,
		"target":34963
	},
	{
		"buffer":8,
		"byteOffset":96768,
		"byteLength":167660,
		"target":34962,
		"byteStride":20
	},
	{
		"buffer":9,
		"byteOffset":0,
		"byteLength":896
	},
	{
		"buffer":9,
		"byteOffset":896,
		"byteLength":1120
	},
	{
		"buffer":9,
		"byteOffset":2016,
		"byteLength":896
	}],
	"materials":[{
		"pbrMetallicRoughness":{
			"baseColorFactor":[1.0,
			1.0,
			1.0,
			0.19999999999999996],
			"metallicFactor":1.0,
			"roughnessFactor":0.1
		},
		"emissiveFactor":[0.0,
		0.0,
		0.0],
		"alphaMode":"BLEND",
		"doubleSided":true,
		"name":"soapy"
	}],
	"animations":[{
		"samplers":[{
			"input":3,
			"interpolation":"LINEAR",
			"output":4
		},
		{
			"input":5,
			"interpolation":"LINEAR",
			"output":6
		},
		{
			"input":7,
			"interpolation":"LINEAR",
			"output":8
		},
		{
			"input":12,
			"interpolation":"LINEAR",
			"output":13
		},
		{
			"input":14,
			"interpolation":"LINEAR",
			"output":15
		},
		{
			"input":16,
			"interpolation":"LINEAR",
			"output":17
		},
		{
			"input":21,
			"interpolation":"LINEAR",
			"output":22
		},
		{
			"input":23,
			"interpolation":"LINEAR",
			"output":24
		},
		{
			"input":25,
			"interpolation":"LINEAR",
			"output":26
		},
		{
			"input":30,
			"interpolation":"LINEAR",
			"output":31
		},
		{
			"input":32,
			"interpolation":"LINEAR",
			"output":33
		},
		{
			"input":34,
			"interpolation":"LINEAR",
			"output":35
		},
		{
			"input":39,
			"interpolation":"LINEAR",
			"output":40
		},
		{
			"input":41,
			"interpolation":"LINEAR",
			"output":42
		},
		{
			"input":43,
			"interpolation":"LINEAR",
			"output":44
		}],
		"channels":[{
			"sampler":0,
			"target":{
				"node":0,
				"path":"translation"
			}
		},
		{
			"sampler":1,
			"target":{
				"node":0,
				"path":"rotation"
			}
		},
		{
			"sampler":2,
			"target":{
				"node":0,
				"path":"scale"
			}
		},
		{
			"sampler":3,
			"target":{
				"node":1,
				"path":"translation"
			}
		},
		{
			"sampler":4,
			"target":{
				"node":1,
				"path":"rotation"
			}
		},
		{
			"sampler":5,
			"target":{
				"node":1,
				"path":"scale"
			}
		},
		{
			"sampler":6,
			"target":{
				"node":2,
				"path":"translation"
			}
		},
		{
			"sampler":7,
			"target":{
				"node":2,
				"path":"rotation"
			}
		},
		{
			"sampler":8,
			"target":{
				"node":2,
				"path":"scale"
			}
		},
		{
			"sampler":9,
			"target":{
				"node":3,
				"path":"translation"
			}
		},
		{
			"sampler":10,
			"target":{
				"node":3,
				"path":"rotation"
			}
		},
		{
			"sampler":11,
			"target":{
				"node":3,
				"path":"scale"
			}
		},
		{
			"sampler":12,
			"target":{
				"node":4,
				"path":"translation"
			}
		},
		{
			"sampler":13,
			"target":{
				"node":4,
				"path":"rotation"
			}
		},
		{
			"sampler":14,
			"target":{
				"node":4,
				"path":"scale"
			}
		}]
	}]
}