{
	"nodes":[{
		"name":"Cylinder",
		"translation":[0.0,
		50.185218811035159,
		0.0],
		"rotation":[0.0,
		-0.9987426996231079,
		0.0,
		0.05012992396950722],
		"mesh":0,
		"scale":[1.0,
		1.0,
		1.0]
	}],
	"asset":{
		"version":"2.0",
		"generator":"Created using the official Cinema 4D glTF Exporter 1.000x284978"
	},
	"materials":[{
		"pbrMetallicRoughness":{
			"baseColorFactor":[1.0,
			0.69,
			0.69,
			1.0],
			"metallicFactor":0.25,
			"roughnessFactor":0.5700000000000001
		},
		"emissiveFactor":[0.0,
		0.0,
		0.0],
		"alphaMode":"OPAQUE",
		"doubleSided":false,
		"name":"my Object material"
	}],
	"scenes":[{
		"nodes":[0]
	}],
	"meshes":[{
		"name":"Cylinder",
		"primitives":[{
			"attributes":{
				"POSITION":1,
				"NORMAL":2,
				"TEXCOORD_0":3
			},
			"indices":0,
			"material":0
		}]
	}],
	"buffers":[{
		"uri":"data:application/octet-stream;base64,",
		"byteLength":13352
	}],
	"accessors":[{
		"bufferView":0,
		"type":"SCALAR",
		"componentType":5123,
		"count":852,
		"byteOffset":0,
		"min":[0],
		"max":[363]
	},
	{
		"bufferView":1,
		"type":"VEC3",
		"componentType":5126,
		"count":364,
		"byteOffset":0,
		"min":[-72.05075073242188,
		-50.0,
		-41.91685104370117],
		"max":[44.697147369384769,
		182.440673828125,
		77.4342041015625]
	},
	{
		"bufferView":1,
		"type":"VEC3",
		"componentType":5126,
		"count":364,
		"byteOffset":12,
		"min":[-0.9537323713302612,
		-1.0,
		-0.9990720152854919],
		"max":[0.9982388019561768,
		0.9904287457466126,
		0.9978530406951904]
	},
	{
		"bufferView":1,
		"type":"VEC2",
		"componentType":5126,
		"count":364,
		"byteOffset":24,
		"min":[0.0,
		-2.272629737854004],
		"max":[4.115589141845703,
		1.0]
	}],
	"bufferViews":[{
		"buffer":0,
		"byteOffset":0,
		"byteLength":1704,
		"target":34963
	},
	{
		"buffer":0,
		"byteOffset":1704,
		"byteLength":11648,
		"target":34962,
		"byteStride":32
	}]
}