{
	"nodes":[{
		"scale":[1.0,
		1.0,
		1.0],
		"translation":[16.69989585876465,
		-43.40332794189453,
		-12.183046340942383],
		"name":"Cube.5",
		"rotation":[0.0,
		0.0,
		0.0,
		-1.0],
		"mesh":0
	},
	{
		"scale":[1.0,
		1.0,
		1.0],
		"translation":[22.886024475097658,
		7.333318710327148,
		9.84023380279541],
		"name":"Cube.4",
		"rotation":[-1.856461928628761e-10,
		-0.9997685551643372,
		-8.627197622956828e-9,
		0.02151373401284218],
		"mesh":1
	},
	{
		"scale":[1.0,
		1.0,
		1.0],
		"translation":[1.841370701789856,
		-22.54295539855957,
		22.72433853149414],
		"name":"Cube.3",
		"rotation":[0.0,
		-0.8458728790283203,
		0.0,
		-0.5333845615386963],
		"mesh":2
	},
	{
		"scale":[1.0,
		1.0,
		1.0],
		"translation":[-18.199491500854493,
		7.333318710327148,
		14.997238159179688],
		"name":"Cube.2",
		"rotation":[1.1580304715153034e-8,
		0.9045531749725342,
		1.0381253190416828e-8,
		0.4263608753681183],
		"mesh":3
	},
	{
		"scale":[1.0,
		1.0,
		1.0],
		"translation":[-1.763253927230835,
		-17.06219482421875,
		-23.347545623779298],
		"name":"Cube.1",
		"rotation":[6.448842349016104e-9,
		-0.6120355725288391,
		-8.332750489614682e-9,
		0.7908302545547485],
		"mesh":4
	},
	{
		"scale":[1.0,
		1.0,
		1.0],
		"translation":[-19.135915756225587,
		-43.40332794189453,
		-6.521295547485352],
		"name":"Cube",
		"rotation":[0.0,
		0.0,
		0.0,
		-1.0],
		"mesh":5
	},
	{
		"scale":[1.0,
		1.0,
		1.0],
		"translation":[5.544938564300537,
		36.49271011352539,
		-1.3160693645477296],
		"name":"Cone.7",
		"rotation":[0.0,
		0.0,
		0.0,
		-1.0],
		"children":[7,
		9,
		11,
		13]
	},
	{
		"scale":[1.0,
		1.0,
		1.0],
		"translation":[0.0,
		0.0,
		0.0],
		"name":"Cone.7-Mat.2",
		"rotation":[0.0,
		0.0,
		0.0,
		-1.0],
		"children":[8]
	},
	{
		"name":"Cone.7-Mat.2",
		"mesh":6
	},
	{
		"scale":[1.0,
		1.0,
		1.0],
		"translation":[0.0,
		0.0,
		0.0],
		"name":"Cone.7-Mat.1",
		"rotation":[0.0,
		0.0,
		0.0,
		-1.0],
		"children":[10]
	},
	{
		"name":"Cone.7-Mat.1",
		"mesh":7
	},
	{
		"scale":[1.0,
		1.0,
		1.0],
		"translation":[0.0,
		0.0,
		0.0],
		"name":"Cone.7-Mat.1",
		"rotation":[0.0,
		0.0,
		0.0,
		-1.0],
		"children":[12]
	},
	{
		"name":"Cone.7-Mat.1",
		"mesh":8
	},
	{
		"scale":[1.100000023841858,
		1.100000023841858,
		1.100000023841858],
		"translation":[-2.604313373565674,
		32.654109954833987,
		1.3160693645477296],
		"name":"Bulge",
		"rotation":[0.0,
		0.0,
		0.0,
		-1.0]
	}],
	"asset":{
		"version":"2.0",
		"generator":"Created using the official Cinema 4D glTF Exporter 1.000x284978"
	},
	"bufferViews":[{
		"buffer":0,
		"byteOffset":0,
		"byteLength":504,
		"target":34963
	},
	{
		"buffer":0,
		"byteOffset":504,
		"byteLength":5120,
		"target":34962,
		"byteStride":32
	},
	{
		"buffer":1,
		"byteOffset":0,
		"byteLength":504,
		"target":34963
	},
	{
		"buffer":1,
		"byteOffset":504,
		"byteLength":5408,
		"target":34962,
		"byteStride":32
	},
	{
		"buffer":2,
		"byteOffset":0,
		"byteLength":504,
		"target":34963
	},
	{
		"buffer":2,
		"byteOffset":504,
		"byteLength":5216,
		"target":34962,
		"byteStride":32
	},
	{
		"buffer":3,
		"byteOffset":0,
		"byteLength":504,
		"target":34963
	},
	{
		"buffer":3,
		"byteOffset":504,
		"byteLength":5472,
		"target":34962,
		"byteStride":32
	},
	{
		"buffer":4,
		"byteOffset":0,
		"byteLength":504,
		"target":34963
	},
	{
		"buffer":4,
		"byteOffset":504,
		"byteLength":5280,
		"target":34962,
		"byteStride":32
	},
	{
		"buffer":5,
		"byteOffset":0,
		"byteLength":504,
		"target":34963
	},
	{
		"buffer":5,
		"byteOffset":504,
		"byteLength":5120,
		"target":34962,
		"byteStride":32
	},
	{
		"buffer":6,
		"byteOffset":0,
		"byteLength":696,
		"target":34963
	},
	{
		"buffer":6,
		"byteOffset":696,
		"byteLength":7552,
		"target":34962,
		"byteStride":32
	},
	{
		"buffer":7,
		"byteOffset":0,
		"byteLength":1008,
		"target":34963
	},
	{
		"buffer":7,
		"byteOffset":1008,
		"byteLength":13504,
		"target":34962,
		"byteStride":32
	},
	{
		"buffer":8,
		"byteOffset":0,
		"byteLength":1998,
		"target":34963
	},
	{
		"buffer":8,
		"byteOffset":2000,
		"byteLength":21792,
		"target":34962,
		"byteStride":32
	},
	{
		"buffer":9,
		"byteOffset":0,
		"byteLength":1936
	}],
	"scenes":[{
		"nodes":[0,
		1,
		2,
		3,
		4,
		5,
		6]
	}],
	"animations":[{
		"samplers":[{
			"input":36,
			"interpolation":"LINEAR",
			"output":37
		}],
		"channels":[{
			"sampler":0,
			"target":{
				"node":13,
				"path":"translation"
			}
		}]
	}],
	"buffers":[{
		"uri":"data:application/octet-stream;base64,",
		"byteLength":5624
	},
	{
		"uri":"data:application/octet-stream;base64,",
		"byteLength":5912
	},
	{
		"uri":"data:application/octet-stream;base64,",
		"byteLength":5720
	},
	{
		"uri":"data:application/octet-stream;base64,",
		"byteLength":5976
	},
	{
		"uri":"data:application/octet-stream;base64,",
		"byteLength":5784
	},
	{
		"uri":"data:application/octet-stream;base64,",
		"byteLength":5624
	},
	{
		"uri":"data:application/octet-stream;base64,",
		"byteLength":8248
	},
	{
		"uri":"data:application/octet-stream;base64,",
		"byteLength":14512
	},
	{
		"uri":"data:application/octet-stream;base64,",
		"byteLength":23792
	},
	{
		"uri":"data:application/octet-stream;base64,",
		"byteLength":1936
	}],
	"meshes":[{
		"name":"Cube.5",
		"primitives":[{
			"attributes":{
				"POSITION":1,
				"NORMAL":2,
				"TEXCOORD_0":3
			},
			"indices":0,
			"material":0
		}]
	},
	{
		"name":"Cube.4",
		"primitives":[{
			"attributes":{
				"POSITION":5,
				"NORMAL":6,
				"TEXCOORD_0":7
			},
			"indices":4,
			"material":0
		}]
	},
	{
		"name":"Cube.3",
		"primitives":[{
			"attributes":{
				"POSITION":9,
				"NORMAL":10,
				"TEXCOORD_0":11
			},
			"indices":8,
			"material":0
		}]
	},
	{
		"name":"Cube.2",
		"primitives":[{
			"attributes":{
				"POSITION":13,
				"NORMAL":14,
				"TEXCOORD_0":15
			},
			"indices":12,
			"material":0
		}]
	},
	{
		"name":"Cube.1",
		"primitives":[{
			"attributes":{
				"POSITION":17,
				"NORMAL":18,
				"TEXCOORD_0":19
			},
			"indices":16,
			"material":0
		}]
	},
	{
		"name":"Cube",
		"primitives":[{
			"attributes":{
				"POSITION":21,
				"NORMAL":22,
				"TEXCOORD_0":23
			},
			"indices":20,
			"material":0
		}]
	},
	{
		"name":"Cone.7-Mat.2",
		"primitives":[{
			"attributes":{
				"POSITION":25,
				"NORMAL":26,
				"TEXCOORD_0":27
			},
			"indices":24,
			"material":1
		}]
	},
	{
		"name":"Cone.7-Mat.1",
		"primitives":[{
			"attributes":{
				"POSITION":29,
				"NORMAL":30,
				"TEXCOORD_0":31
			},
			"indices":28,
			"material":2
		}]
	},
	{
		"name":"Cone.7-Mat.1",
		"primitives":[{
			"attributes":{
				"POSITION":33,
				"NORMAL":34,
				"TEXCOORD_0":35
			},
			"indices":32,
			"material":2
		}]
	}],
	"accessors":[{
		"bufferView":0,
		"type":"SCALAR",
		"componentType":5123,
		"count":252,
		"byteOffset":0,
		"min":[0],
		"max":[159]
	},
	{
		"bufferView":1,
		"type":"VEC3",
		"componentType":5126,
		"count":160,
		"byteOffset":0,
		"min":[-7.250739574432373,
		-125.01416015625,
		-7.638648986816406],
		"max":[15.13778305053711,
		125.01416015625,
		11.53391170501709]
	},
	{
		"bufferView":1,
		"type":"VEC3",
		"componentType":5126,
		"count":160,
		"byteOffset":12,
		"min":[-0.9986337423324585,
		-1.0,
		-0.9999915957450867],
		"max":[0.9999512434005737,
		1.0,
		0.9999884366989136]
	},
	{
		"bufferView":1,
		"type":"VEC2",
		"componentType":5126,
		"count":160,
		"byteOffset":24,
		"min":[0.0,
		0.0],
		"max":[1.0,
		1.0]
	},
	{
		"bufferView":2,
		"type":"SCALAR",
		"componentType":5123,
		"count":252,
		"byteOffset":0,
		"min":[0],
		"max":[168]
	},
	{
		"bufferView":3,
		"type":"VEC3",
		"componentType":5126,
		"count":169,
		"byteOffset":0,
		"min":[-5.800591468811035,
		-70.82349395751953,
		-6.110918998718262],
		"max":[12.11022663116455,
		70.82349395751953,
		9.227129936218262]
	},
	{
		"bufferView":3,
		"type":"VEC3",
		"componentType":5126,
		"count":169,
		"byteOffset":12,
		"min":[-0.997298538684845,
		-1.0,
		-0.9999832510948181],
		"max":[0.9999056458473206,
		1.0,
		0.9999769330024719]
	},
	{
		"bufferView":3,
		"type":"VEC2",
		"componentType":5126,
		"count":169,
		"byteOffset":24,
		"min":[0.0,
		0.0],
		"max":[1.0,
		1.0]
	},
	{
		"bufferView":4,
		"type":"SCALAR",
		"componentType":5123,
		"count":252,
		"byteOffset":0,
		"min":[0],
		"max":[162]
	},
	{
		"bufferView":5,
		"type":"VEC3",
		"componentType":5126,
		"count":163,
		"byteOffset":0,
		"min":[-7.250739574432373,
		-108.6592025756836,
		-7.638648986816406],
		"max":[15.13778305053711,
		108.6592025756836,
		11.53391170501709]
	},
	{
		"bufferView":5,
		"type":"VEC3",
		"componentType":5126,
		"count":163,
		"byteOffset":12,
		"min":[-0.9981964826583862,
		-1.0,
		-0.999988853931427],
		"max":[0.9999361634254456,
		1.0,
		0.9999846816062927]
	},
	{
		"bufferView":5,
		"type":"VEC2",
		"componentType":5126,
		"count":163,
		"byteOffset":24,
		"min":[0.0,
		0.0],
		"max":[1.0,
		1.0]
	},
	{
		"bufferView":6,
		"type":"SCALAR",
		"componentType":5123,
		"count":252,
		"byteOffset":0,
		"min":[0],
		"max":[170]
	},
	{
		"bufferView":7,
		"type":"VEC3",
		"componentType":5126,
		"count":171,
		"byteOffset":0,
		"min":[-7.250739574432373,
		-86.34429931640625,
		-7.638648986816406],
		"max":[15.13778305053711,
		86.34429931640625,
		11.53391170501709]
	},
	{
		"bufferView":7,
		"type":"VEC3",
		"componentType":5126,
		"count":171,
		"byteOffset":12,
		"min":[-0.9971625208854675,
		-1.0,
		-0.9999823570251465],
		"max":[0.9999012351036072,
		1.0,
		0.9999756813049316]
	},
	{
		"bufferView":7,
		"type":"VEC2",
		"componentType":5126,
		"count":171,
		"byteOffset":24,
		"min":[0.0,
		0.0],
		"max":[1.0,
		1.0]
	},
	{
		"bufferView":8,
		"type":"SCALAR",
		"componentType":5123,
		"count":252,
		"byteOffset":0,
		"min":[0],
		"max":[164]
	},
	{
		"bufferView":9,
		"type":"VEC3",
		"componentType":5126,
		"count":165,
		"byteOffset":0,
		"min":[-7.250739574432373,
		-102.19141387939453,
		-7.638648986816406],
		"max":[15.13778305053711,
		102.19141387939453,
		11.53391170501709]
	},
	{
		"bufferView":9,
		"type":"VEC3",
		"componentType":5126,
		"count":165,
		"byteOffset":12,
		"min":[-0.9979640245437622,
		-1.0,
		-0.9999873638153076],
		"max":[0.9999281764030457,
		1.0,
		0.9999826550483704]
	},
	{
		"bufferView":9,
		"type":"VEC2",
		"componentType":5126,
		"count":165,
		"byteOffset":24,
		"min":[0.0,
		0.0],
		"max":[1.0,
		1.0]
	},
	{
		"bufferView":10,
		"type":"SCALAR",
		"componentType":5123,
		"count":252,
		"byteOffset":0,
		"min":[0],
		"max":[159]
	},
	{
		"bufferView":11,
		"type":"VEC3",
		"componentType":5126,
		"count":160,
		"byteOffset":0,
		"min":[-7.250739574432373,
		-125.01416015625,
		-7.638648986816406],
		"max":[15.13778305053711,
		125.01416015625,
		11.53391170501709]
	},
	{
		"bufferView":11,
		"type":"VEC3",
		"componentType":5126,
		"count":160,
		"byteOffset":12,
		"min":[-0.9986337423324585,
		-1.0,
		-0.9999915957450867],
		"max":[0.9999512434005737,
		1.0,
		0.9999884366989136]
	},
	{
		"bufferView":11,
		"type":"VEC2",
		"componentType":5126,
		"count":160,
		"byteOffset":24,
		"min":[0.0,
		0.0],
		"max":[1.0,
		1.0]
	},
	{
		"bufferView":12,
		"type":"SCALAR",
		"componentType":5123,
		"count":348,
		"byteOffset":0,
		"min":[0],
		"max":[235]
	},
	{
		"bufferView":13,
		"type":"VEC3",
		"componentType":5126,
		"count":236,
		"byteOffset":0,
		"min":[-59.037757873535159,
		22.716108322143556,
		-48.99454879760742],
		"max":[46.93111038208008,
		94.26400756835938,
		54.60207748413086]
	},
	{
		"bufferView":13,
		"type":"VEC3",
		"componentType":5126,
		"count":236,
		"byteOffset":12,
		"min":[-0.9266250729560852,
		-0.9849063158035278,
		-1.0],
		"max":[0.9267187714576721,
		0.9849063158035278,
		0.9999688267707825]
	},
	{
		"bufferView":13,
		"type":"VEC2",
		"componentType":5126,
		"count":236,
		"byteOffset":24,
		"min":[0.003000000026077032,
		0.004999999888241291],
		"max":[0.9929999709129334,
		0.9989999532699585]
	},
	{
		"bufferView":14,
		"type":"SCALAR",
		"componentType":5123,
		"count":504,
		"byteOffset":0,
		"min":[0],
		"max":[421]
	},
	{
		"bufferView":15,
		"type":"VEC3",
		"componentType":5126,
		"count":422,
		"byteOffset":0,
		"min":[-114.8481674194336,
		32.20511245727539,
		-107.24909973144531],
		"max":[102.4409408569336,
		108.06475830078125,
		109.88124084472656]
	},
	{
		"bufferView":15,
		"type":"VEC3",
		"componentType":5126,
		"count":422,
		"byteOffset":12,
		"min":[-0.9810938239097595,
		-0.9397500157356262,
		-0.9300000667572022],
		"max":[0.9316250681877136,
		0.9614375233650208,
		0.9300000667572022]
	},
	{
		"bufferView":15,
		"type":"VEC2",
		"componentType":5126,
		"count":422,
		"byteOffset":24,
		"min":[0.0,
		0.0],
		"max":[1.0,
		0.8659999370574951]
	},
	{
		"bufferView":16,
		"type":"SCALAR",
		"componentType":5123,
		"count":999,
		"byteOffset":0,
		"min":[0],
		"max":[680]
	},
	{
		"bufferView":17,
		"type":"VEC3",
		"componentType":5126,
		"count":681,
		"byteOffset":0,
		"min":[-77.64415740966797,
		-141.7526092529297,
		-69.74246215820313],
		"max":[67.30142974853516,
		72.68798065185547,
		58.67780303955078]
	},
	{
		"bufferView":17,
		"type":"VEC3",
		"componentType":5126,
		"count":681,
		"byteOffset":12,
		"min":[-0.9589688181877136,
		-0.5221250057220459,
		-0.9998750686645508],
		"max":[0.9999688267707825,
		0.9961875677108765,
		0.9999688267707825]
	},
	{
		"bufferView":17,
		"type":"VEC2",
		"componentType":5126,
		"count":681,
		"byteOffset":24,
		"min":[0.0,
		0.0],
		"max":[1.0,
		1.0]
	},
	{
		"bufferView":18,
		"type":"SCALAR",
		"componentType":5126,
		"count":121,
		"byteOffset":0,
		"min":[0.0],
		"max":[4.0]
	},
	{
		"bufferView":18,
		"type":"VEC3",
		"componentType":5126,
		"count":121,
		"byteOffset":484,
		"min":[-5.544938564300537,
		21.559436798095704,
		1.3160693645477296],
		"max":[0.0,
		32.654109954833987,
		1.3160693645477296]
	}],
	"materials":[{
		"pbrMetallicRoughness":{
			"baseColorFactor":[1.0,
			1.0,
			1.0,
			1.0],
			"metallicFactor":0.0,
			"roughnessFactor":0.5
		},
		"emissiveFactor":[0.0,
		0.0,
		0.0],
		"alphaMode":"OPAQUE",
		"doubleSided":false,
		"name":"Mat"
	},
	{
		"pbrMetallicRoughness":{
			"baseColorFactor":[0.52,
			0.7199999999999998,
			1.0,
			1.0],
			"metallicFactor":0.0,
			"roughnessFactor":0.5
		},
		"emissiveFactor":[0.0,
		0.0,
		0.0],
		"alphaMode":"OPAQUE",
		"doubleSided":false,
		"name":"Mat.2"
	},
	{
		"pbrMetallicRoughness":{
			"baseColorFactor":[0.52,
			0.7199999999999998,
			1.0,
			0.36],
			"metallicFactor":0.0,
			"roughnessFactor":0.5
		},
		"emissiveFactor":[0.0,
		0.0,
		0.0],
		"alphaMode":"BLEND",
		"doubleSided":false,
		"name":"Mat.1"
	}]
}