{
	"accessors":[{
		"bufferView":0,
		"type":"SCALAR",
		"componentType":5123,
		"count":948,
		"byteOffset":0,
		"min":[0],
		"max":[395]
	},
	{
		"bufferView":1,
		"type":"VEC3",
		"componentType":5126,
		"count":396,
		"byteOffset":0,
		"min":[-75.54824829101563,
		-50.78350830078125,
		-205.64495849609376],
		"max":[73.16285705566406,
		64.82109069824219,
		162.5584259033203]
	},
	{
		"bufferView":1,
		"type":"VEC2",
		"componentType":5126,
		"count":396,
		"byteOffset":12,
		"min":[0.0013055496383458377,
		0.0013055496383458377],
		"max":[0.9961089491844177,
		0.9907946586608887]
	},
	{
		"bufferView":2,
		"type":"VEC3",
		"componentType":5126,
		"count":396,
		"byteOffset":0,
		"min":[-0.12428279966115952,
		-0.049177031964063647,
		-0.06714082509279251],
		"max":[0.8319135308265686,
		0.08739735186100006,
		0.1466606855392456]
	},
	{
		"bufferView":3,
		"type":"VEC3",
		"componentType":5126,
		"count":396,
		"byteOffset":0,
		"min":[-0.02787829376757145,
		-0.011026171036064625,
		-0.030025789514183999],
		"max":[1.4711790084838868,
		0.14673131704330445,
		0.19934874773025514]
	},
	{
		"bufferView":4,
		"type":"VEC3",
		"componentType":5126,
		"count":396,
		"byteOffset":0,
		"min":[-0.33730506896972659,
		-0.09765192866325379,
		-0.1465129405260086],
		"max":[3.2439792156219484,
		0.31517574191093447,
		0.38431891798973086]
	},
	{
		"bufferView":5,
		"type":"VEC3",
		"componentType":5126,
		"count":396,
		"byteOffset":0,
		"min":[-1.1351100206375123,
		-0.2751127779483795,
		-0.412660151720047],
		"max":[5.821781635284424,
		0.5664213299751282,
		0.7697810530662537]
	},
	{
		"bufferView":6,
		"type":"VEC3",
		"componentType":5126,
		"count":396,
		"byteOffset":0,
		"min":[-2.2145628929138185,
		-0.5132060050964356,
		-0.7695486545562744],
		"max":[8.758493423461914,
		0.8588477373123169,
		1.4053845405578614]
	},
	{
		"bufferView":7,
		"type":"VEC3",
		"componentType":5126,
		"count":396,
		"byteOffset":0,
		"min":[-3.517839193344116,
		-0.798134446144104,
		-1.1964045763015748],
		"max":[11.572673797607422,
		1.1429649591445923,
		2.2639076709747316]
	},
	{
		"bufferView":8,
		"type":"VEC3",
		"componentType":5126,
		"count":396,
		"byteOffset":0,
		"min":[-4.9768500328063969,
		-1.1139111518859864,
		-1.6692568063735963],
		"max":[13.848427772521973,
		1.3684022426605225,
		3.2290172576904299]
	},
	{
		"bufferView":9,
		"type":"VEC3",
		"componentType":5126,
		"count":396,
		"byteOffset":0,
		"min":[-6.527218341827393,
		-1.4453394412994385,
		-2.1654038429260256],
		"max":[15.301604270935059,
		1.5301764011383057,
		4.132530212402344]
	},
	{
		"bufferView":10,
		"type":"VEC3",
		"componentType":5126,
		"count":396,
		"byteOffset":0,
		"min":[-8.116809844970704,
		-1.779959797859192,
		-2.6662960052490236],
		"max":[15.787663459777832,
		1.8800488710403443,
		4.809441089630127]
	},
	{
		"bufferView":11,
		"type":"VEC3",
		"componentType":5126,
		"count":396,
		"byteOffset":0,
		"min":[-9.707917213439942,
		-2.1170220375061037,
		-3.1585068702697756],
		"max":[15.268386840820313,
		2.222162961959839,
		5.138782501220703]
	},
	{
		"bufferView":12,
		"type":"VEC3",
		"componentType":5126,
		"count":396,
		"byteOffset":0,
		"min":[-11.274932861328125,
		-2.5301833152770998,
		-3.633204936981201],
		"max":[13.767366409301758,
		2.5504255294799806,
		5.059637546539307]
	},
	{
		"bufferView":13,
		"type":"VEC3",
		"componentType":5126,
		"count":396,
		"byteOffset":0,
		"min":[-13.031606674194336,
		-3.029165267944336,
		-4.161545753479004],
		"max":[11.131695747375489,
		2.913740634918213,
		4.575653553009033]
	},
	{
		"bufferView":14,
		"type":"VEC3",
		"componentType":5126,
		"count":396,
		"byteOffset":0,
		"min":[-15.085214614868164,
		-3.735003709793091,
		-4.781353950500488],
		"max":[8.815282821655274,
		3.337057113647461,
		4.7468037605285648]
	},
	{
		"bufferView":15,
		"type":"VEC3",
		"componentType":5126,
		"count":396,
		"byteOffset":0,
		"min":[-17.315353393554689,
		-4.597008228302002,
		-5.455294609069824],
		"max":[10.089818954467774,
		3.793586492538452,
		5.431124210357666]
	},
	{
		"bufferView":16,
		"type":"VEC3",
		"componentType":5126,
		"count":396,
		"byteOffset":0,
		"min":[-19.644695281982423,
		-5.579665660858154,
		-6.159928321838379],
		"max":[11.430764198303223,
		4.266459941864014,
		6.150731086730957]
	},
	{
		"bufferView":17,
		"type":"VEC3",
		"componentType":5126,
		"count":396,
		"byteOffset":0,
		"min":[-22.067922592163087,
		-6.6673712730407719,
		-6.878899097442627],
		"max":[12.807759284973145,
		4.743979454040527,
		6.889358043670654]
	},
	{
		"bufferView":18,
		"type":"VEC3",
		"componentType":5126,
		"count":396,
		"byteOffset":0,
		"min":[-25.030956268310548,
		-7.888177394866943,
		-7.599796772003174],
		"max":[14.197284698486329,
		5.21743106842041,
		7.634446144104004]
	},
	{
		"bufferView":19,
		"type":"VEC3",
		"componentType":5126,
		"count":396,
		"byteOffset":0,
		"min":[-27.971677780151368,
		-9.263672828674317,
		-8.312490463256836],
		"max":[15.579643249511719,
		5.679928779602051,
		8.375506401062012]
	},
	{
		"bufferView":20,
		"type":"VEC3",
		"componentType":5126,
		"count":396,
		"byteOffset":0,
		"min":[-30.851022720336915,
		-10.703859329223633,
		-9.008134841918946],
		"max":[16.93716812133789,
		6.12573766708374,
		9.103150367736817]
	},
	{
		"bufferView":21,
		"type":"VEC3",
		"componentType":5126,
		"count":396,
		"byteOffset":0,
		"min":[-33.6339225769043,
		-12.202527046203614,
		-9.678515434265137],
		"max":[18.25303077697754,
		6.549832820892334,
		9.808436393737793]
	},
	{
		"bufferView":22,
		"type":"VEC3",
		"componentType":5126,
		"count":396,
		"byteOffset":0,
		"min":[-36.287776947021487,
		-13.974992752075196,
		-10.315603256225586],
		"max":[19.51044273376465,
		6.947607040405273,
		10.482433319091797]
	},
	{
		"bufferView":23,
		"type":"VEC3",
		"componentType":5126,
		"count":396,
		"byteOffset":0,
		"min":[-38.99143600463867,
		-15.732002258300782,
		-10.911049842834473],
		"max":[20.691696166992189,
		7.314549922943115,
		11.115701675415039]
	},
	{
		"bufferView":24,
		"type":"VEC3",
		"componentType":5126,
		"count":396,
		"byteOffset":0,
		"min":[-42.275367736816409,
		-17.633989334106447,
		-11.455789566040039],
		"max":[21.777420043945314,
		7.645996570587158,
		11.697880744934082]
	},
	{
		"bufferView":25,
		"type":"VEC3",
		"componentType":5126,
		"count":396,
		"byteOffset":0,
		"min":[-45.256431579589847,
		-19.48720359802246,
		-11.93947696685791],
		"max":[22.7454833984375,
		7.936777114868164,
		12.217105865478516]
	},
	{
		"bufferView":26,
		"type":"VEC3",
		"componentType":5126,
		"count":396,
		"byteOffset":0,
		"min":[-47.87308883666992,
		-21.14864158630371,
		-12.349851608276368],
		"max":[23.56976318359375,
		8.180810928344727,
		12.659337043762207]
	},
	{
		"bufferView":27,
		"type":"VEC3",
		"componentType":5126,
		"count":396,
		"byteOffset":0,
		"min":[-50.58217239379883,
		-22.534318923950197,
		-12.671703338623047],
		"max":[24.218116760253908,
		8.370444297790528,
		13.007275581359864]
	},
	{
		"bufferView":28,
		"type":"VEC3",
		"componentType":5126,
		"count":396,
		"byteOffset":0,
		"min":[-52.787757873535159,
		-23.543569564819337,
		-12.885358810424805],
		"max":[24.64942169189453,
		8.49545955657959,
		13.238786697387696]
	},
	{
		"bufferView":29,
		"type":"VEC3",
		"componentType":5126,
		"count":396,
		"byteOffset":0,
		"min":[-54.128456115722659,
		-24.05224609375,
		-12.964177131652832],
		"max":[24.808713912963868,
		8.541399955749512,
		13.324300765991211]
	},
	{
		"bufferView":30,
		"type":"VEC3",
		"componentType":5126,
		"count":396,
		"byteOffset":0,
		"min":[-55.042503356933597,
		-24.149375915527345,
		-12.903536796569825],
		"max":[24.6861515045166,
		8.506063461303711,
		13.258503913879395]
	},
	{
		"bufferView":31,
		"type":"VEC3",
		"componentType":5126,
		"count":396,
		"byteOffset":0,
		"min":[-56.08830642700195,
		-24.03049659729004,
		-12.729339599609375],
		"max":[24.334394454956056,
		8.404236793518067,
		13.069685935974121]
	},
	{
		"bufferView":32,
		"type":"VEC3",
		"componentType":5126,
		"count":396,
		"byteOffset":0,
		"min":[-57.217437744140628,
		-23.70883560180664,
		-12.452839851379395],
		"max":[23.777048110961915,
		8.241661071777344,
		12.770566940307618]
	},
	{
		"bufferView":33,
		"type":"VEC3",
		"componentType":5126,
		"count":396,
		"byteOffset":0,
		"min":[-58.37790298461914,
		-23.199234008789064,
		-12.084997177124024],
		"max":[23.037466049194337,
		8.023595809936524,
		12.37374210357666]
	},
	{
		"bufferView":34,
		"type":"VEC3",
		"componentType":5126,
		"count":396,
		"byteOffset":0,
		"min":[-59.513755798339847,
		-22.518274307250978,
		-11.636659622192383],
		"max":[22.13897705078125,
		7.755124568939209,
		11.891786575317383]
	},
	{
		"bufferView":35,
		"type":"VEC3",
		"componentType":5126,
		"count":396,
		"byteOffset":0,
		"min":[-60.56517028808594,
		-21.68445587158203,
		-11.11878490447998],
		"max":[21.105165481567384,
		7.441433429718018,
		11.337392807006836]
	},
	{
		"bufferView":36,
		"type":"VEC3",
		"componentType":5126,
		"count":396,
		"byteOffset":0,
		"min":[-61.46909713745117,
		-20.718170166015626,
		-10.542558670043946],
		"max":[19.95999526977539,
		7.088028907775879,
		10.723423957824707]
	},
	{
		"bufferView":37,
		"type":"VEC3",
		"componentType":5126,
		"count":396,
		"byteOffset":0,
		"min":[-62.159908294677737,
		-19.641803741455079,
		-9.91970443725586],
		"max":[18.728273391723634,
		6.701037406921387,
		10.063167572021485]
	},
	{
		"bufferView":38,
		"type":"VEC3",
		"componentType":5126,
		"count":396,
		"byteOffset":0,
		"min":[-62.570472717285159,
		-18.479286193847658,
		-9.26259708404541],
		"max":[17.435762405395509,
		6.287367820739746,
		9.370389938354493]
	},
	{
		"bufferView":39,
		"type":"VEC3",
		"componentType":5126,
		"count":396,
		"byteOffset":0,
		"min":[-62.632659912109378,
		-17.255578994750978,
		-8.584519386291504],
		"max":[16.109533309936525,
		5.85493803024292,
		8.659539222717286]
	},
	{
		"bufferView":40,
		"type":"VEC3",
		"componentType":5126,
		"count":396,
		"byteOffset":0,
		"min":[-62.277137756347659,
		-15.995975494384766,
		-7.900001049041748],
		"max":[14.778523445129395,
		5.412938117980957,
		7.946056842803955]
	},
	{
		"bufferView":41,
		"type":"VEC3",
		"componentType":5126,
		"count":396,
		"byteOffset":0,
		"min":[-61.43193435668945,
		-14.724896430969239,
		-7.225096225738525],
		"max":[13.473950386047364,
		4.97203254699707,
		7.246609687805176]
	},
	{
		"bufferView":42,
		"type":"VEC3",
		"componentType":5126,
		"count":396,
		"byteOffset":0,
		"min":[-60.01908493041992,
		-13.464539527893067,
		-6.577824592590332],
		"max":[12.230056762695313,
		4.544645309448242,
		6.579511642456055]
	},
	{
		"bufferView":43,
		"type":"VEC3",
		"componentType":5126,
		"count":396,
		"byteOffset":0,
		"min":[-57.94859313964844,
		-12.233172416687012,
		-5.9786696434021],
		"max":[11.085006713867188,
		4.145268440246582,
		5.965216159820557]
	},
	{
		"bufferView":44,
		"type":"VEC3",
		"componentType":5126,
		"count":396,
		"byteOffset":0,
		"min":[-55.109798431396487,
		-11.043366432189942,
		-5.4513726234436039],
		"max":[10.082380294799805,
		3.7909414768218996,
		5.427130699157715]
	},
	{
		"bufferView":45,
		"type":"VEC3",
		"componentType":5126,
		"count":396,
		"byteOffset":0,
		"min":[-51.366661071777347,
		-9.801009178161621,
		-4.94271993637085],
		"max":[9.119739532470704,
		3.44673228263855,
		4.910305976867676]
	},
	{
		"bufferView":46,
		"type":"VEC3",
		"componentType":5126,
		"count":396,
		"byteOffset":0,
		"min":[-46.740631103515628,
		-8.446893692016602,
		-4.485239028930664],
		"max":[8.075425148010254,
		3.0689260959625246,
		4.3493828773498539]
	},
	{
		"bufferView":47,
		"type":"VEC3",
		"componentType":5126,
		"count":396,
		"byteOffset":0,
		"min":[-41.36547088623047,
		-7.0441460609436039,
		-4.0794548988342289],
		"max":[6.97274923324585,
		2.665109395980835,
		3.75679874420166]
	},
	{
		"bufferView":48,
		"type":"VEC3",
		"componentType":5126,
		"count":396,
		"byteOffset":0,
		"min":[-35.41908264160156,
		-5.657455921173096,
		-3.7359418869018556],
		"max":[5.839606285095215,
		2.2449707984924318,
		3.147470474243164]
	},
	{
		"bufferView":49,
		"type":"VEC3",
		"componentType":5126,
		"count":396,
		"byteOffset":0,
		"min":[-29.12496566772461,
		-4.347962856292725,
		-3.2851030826568605],
		"max":[4.708163738250732,
		1.8203200101852418,
		2.538644552230835]
	},
	{
		"bufferView":50,
		"type":"VEC3",
		"componentType":5126,
		"count":396,
		"byteOffset":0,
		"min":[-22.747570037841798,
		-3.167659044265747,
		-2.7314937114715578],
		"max":[3.614023208618164,
		1.4048616886138917,
		1.9494653940200806]
	},
	{
		"bufferView":51,
		"type":"VEC3",
		"componentType":5126,
		"count":396,
		"byteOffset":0,
		"min":[-16.581148147583009,
		-2.154613733291626,
		-2.1064984798431398],
		"max":[2.5949015617370607,
		1.013707160949707,
		1.4002790451049805]
	},
	{
		"bufferView":52,
		"type":"VEC3",
		"componentType":5126,
		"count":396,
		"byteOffset":0,
		"min":[-10.93307113647461,
		-1.330399513244629,
		-1.5322611331939698],
		"max":[1.688900351524353,
		0.6626379489898682,
		0.9117029309272766]
	},
	{
		"bufferView":53,
		"type":"VEC3",
		"componentType":5126,
		"count":396,
		"byteOffset":0,
		"min":[-6.108208179473877,
		-0.7009811401367188,
		-0.9461793303489685],
		"max":[0.9328092932701111,
		0.3672933578491211,
		0.5037045478820801]
	},
	{
		"bufferView":54,
		"type":"VEC3",
		"componentType":5126,
		"count":396,
		"byteOffset":0,
		"min":[-2.381558418273926,
		-0.26081639528274538,
		-0.3962329030036926],
		"max":[0.3601776659488678,
		0.14219889044761659,
		0.19453749060630799]
	},
	{
		"bufferView":55,
		"type":"VEC3",
		"componentType":5126,
		"count":396,
		"byteOffset":0,
		"min":[0.0,
		0.0,
		0.0],
		"max":[0.0,
		0.0,
		0.0]
	},
	{
		"bufferView":56,
		"type":"SCALAR",
		"componentType":5126,
		"count":54,
		"byteOffset":0,
		"min":[0.0],
		"max":[1.7666666507720948]
	},
	{
		"bufferView":56,
		"type":"SCALAR",
		"componentType":5126,
		"count":2916,
		"byteOffset":216,
		"min":[0.0],
		"max":[1.0]
	}],
	"nodes":[{
		"name":"Cube (Copy).1",
		"translation":[-238.5175018310547,
		262.44384765625,
		0.0],
		"rotation":[0.0,
		0.0,
		0.011909124441444874,
		0.9999290704727173],
		"scale":[1.0,
		1.0,
		1.0],
		"mesh":0
	}],
	"asset":{
		"version":"2.0",
		"generator":"Created using the official Cinema 4D glTF Exporter 1.000x284978"
	},
	"scenes":[{
		"nodes":[0]
	}],
	"meshes":[{
		"name":"Cube (Copy).1",
		"primitives":[{
			"targets":[{
				"POSITION":3
			},
			{
				"POSITION":4
			},
			{
				"POSITION":5
			},
			{
				"POSITION":6
			},
			{
				"POSITION":7
			},
			{
				"POSITION":8
			},
			{
				"POSITION":9
			},
			{
				"POSITION":10
			},
			{
				"POSITION":11
			},
			{
				"POSITION":12
			},
			{
				"POSITION":13
			},
			{
				"POSITION":14
			},
			{
				"POSITION":15
			},
			{
				"POSITION":16
			},
			{
				"POSITION":17
			},
			{
				"POSITION":18
			},
			{
				"POSITION":19
			},
			{
				"POSITION":20
			},
			{
				"POSITION":21
			},
			{
				"POSITION":22
			},
			{
				"POSITION":23
			},
			{
				"POSITION":24
			},
			{
				"POSITION":25
			},
			{
				"POSITION":26
			},
			{
				"POSITION":27
			},
			{
				"POSITION":28
			},
			{
				"POSITION":29
			},
			{
				"POSITION":30
			},
			{
				"POSITION":31
			},
			{
				"POSITION":32
			},
			{
				"POSITION":33
			},
			{
				"POSITION":34
			},
			{
				"POSITION":35
			},
			{
				"POSITION":36
			},
			{
				"POSITION":37
			},
			{
				"POSITION":38
			},
			{
				"POSITION":39
			},
			{
				"POSITION":40
			},
			{
				"POSITION":41
			},
			{
				"POSITION":42
			},
			{
				"POSITION":43
			},
			{
				"POSITION":44
			},
			{
				"POSITION":45
			},
			{
				"POSITION":46
			},
			{
				"POSITION":47
			},
			{
				"POSITION":48
			},
			{
				"POSITION":49
			},
			{
				"POSITION":50
			},
			{
				"POSITION":51
			},
			{
				"POSITION":52
			},
			{
				"POSITION":53
			},
			{
				"POSITION":54
			},
			{
				"POSITION":55
			},
			{
				"POSITION":56
			}],
			"attributes":{
				"TEXCOORD_0":2,
				"POSITION":1
			},
			"indices":0,
			"material":0
		}],
		"extras":{
			"targetNames":["curve0",
			"curve1",
			"curve2",
			"curve3",
			"curve4",
			"curve5",
			"curve6",
			"curve7",
			"curve8",
			"curve9",
			"curve10",
			"curve11",
			"curve12",
			"curve13",
			"curve14",
			"curve15",
			"curve16",
			"curve17",
			"curve18",
			"curve19",
			"curve20",
			"curve21",
			"curve22",
			"curve23",
			"curve24",
			"curve25",
			"curve26",
			"curve27",
			"curve28",
			"curve29",
			"curve30",
			"curve31",
			"curve32",
			"curve33",
			"curve34",
			"curve35",
			"curve36",
			"curve37",
			"curve38",
			"curve39",
			"curve40",
			"curve41",
			"curve42",
			"curve43",
			"curve44",
			"curve45",
			"curve46",
			"curve47",
			"curve48",
			"curve49",
			"curve50",
			"curve51",
			"curve52",
			"curve53"]
		},
		"weights":[0.0,
		0.0,
		0.0,
		0.0,
		0.0,
		0.0,
		0.0,
		0.0,
		0.0,
		0.0,
		0.0,
		0.0,
		0.0,
		0.0,
		0.0,
		0.0,
		0.0,
		0.0,
		0.0,
		0.0,
		0.0,
		0.0,
		0.0,
		0.0,
		0.0,
		0.0,
		0.0,
		0.0,
		0.0,
		0.0,
		0.0,
		0.0,
		0.0,
		0.0,
		0.0,
		0.0,
		0.0,
		0.0,
		0.0,
		0.0,
		0.0,
		0.0,
		0.0,
		0.0,
		0.0,
		0.0,
		0.0,
		0.0,
		0.0,
		0.0,
		0.0,
		0.0,
		0.0,
		0.0]
	}],
	"bufferViews":[{
		"buffer":0,
		"byteOffset":0,
		"byteLength":1896,
		"target":34963
	},
	{
		"buffer":0,
		"byteOffset":1896,
		"byteLength":7920,
		"target":34962,
		"byteStride":20
	},
	{
		"buffer":0,
		"byteOffset":9816,
		"byteLength":4752,
		"target":34962
	},
	{
		"buffer":0,
		"byteOffset":14568,
		"byteLength":4752,
		"target":34962
	},
	{
		"buffer":0,
		"byteOffset":19320,
		"byteLength":4752,
		"target":34962
	},
	{
		"buffer":0,
		"byteOffset":24072,
		"byteLength":4752,
		"target":34962
	},
	{
		"buffer":0,
		"byteOffset":28824,
		"byteLength":4752,
		"target":34962
	},
	{
		"buffer":0,
		"byteOffset":33576,
		"byteLength":4752,
		"target":34962
	},
	{
		"buffer":0,
		"byteOffset":38328,
		"byteLength":4752,
		"target":34962
	},
	{
		"buffer":0,
		"byteOffset":43080,
		"byteLength":4752,
		"target":34962
	},
	{
		"buffer":0,
		"byteOffset":47832,
		"byteLength":4752,
		"target":34962
	},
	{
		"buffer":0,
		"byteOffset":52584,
		"byteLength":4752,
		"target":34962
	},
	{
		"buffer":0,
		"byteOffset":57336,
		"byteLength":4752,
		"target":34962
	},
	{
		"buffer":0,
		"byteOffset":62088,
		"byteLength":4752,
		"target":34962
	},
	{
		"buffer":0,
		"byteOffset":66840,
		"byteLength":4752,
		"target":34962
	},
	{
		"buffer":0,
		"byteOffset":71592,
		"byteLength":4752,
		"target":34962
	},
	{
		"buffer":0,
		"byteOffset":76344,
		"byteLength":4752,
		"target":34962
	},
	{
		"buffer":0,
		"byteOffset":81096,
		"byteLength":4752,
		"target":34962
	},
	{
		"buffer":0,
		"byteOffset":85848,
		"byteLength":4752,
		"target":34962
	},
	{
		"buffer":0,
		"byteOffset":90600,
		"byteLength":4752,
		"target":34962
	},
	{
		"buffer":0,
		"byteOffset":95352,
		"byteLength":4752,
		"target":34962
	},
	{
		"buffer":0,
		"byteOffset":100104,
		"byteLength":4752,
		"target":34962
	},
	{
		"buffer":0,
		"byteOffset":104856,
		"byteLength":4752,
		"target":34962
	},
	{
		"buffer":0,
		"byteOffset":109608,
		"byteLength":4752,
		"target":34962
	},
	{
		"buffer":0,
		"byteOffset":114360,
		"byteLength":4752,
		"target":34962
	},
	{
		"buffer":0,
		"byteOffset":119112,
		"byteLength":4752,
		"target":34962
	},
	{
		"buffer":0,
		"byteOffset":123864,
		"byteLength":4752,
		"target":34962
	},
	{
		"buffer":0,
		"byteOffset":128616,
		"byteLength":4752,
		"target":34962
	},
	{
		"buffer":0,
		"byteOffset":133368,
		"byteLength":4752,
		"target":34962
	},
	{
		"buffer":0,
		"byteOffset":138120,
		"byteLength":4752,
		"target":34962
	},
	{
		"buffer":0,
		"byteOffset":142872,
		"byteLength":4752,
		"target":34962
	},
	{
		"buffer":0,
		"byteOffset":147624,
		"byteLength":4752,
		"target":34962
	},
	{
		"buffer":0,
		"byteOffset":152376,
		"byteLength":4752,
		"target":34962
	},
	{
		"buffer":0,
		"byteOffset":157128,
		"byteLength":4752,
		"target":34962
	},
	{
		"buffer":0,
		"byteOffset":161880,
		"byteLength":4752,
		"target":34962
	},
	{
		"buffer":0,
		"byteOffset":166632,
		"byteLength":4752,
		"target":34962
	},
	{
		"buffer":0,
		"byteOffset":171384,
		"byteLength":4752,
		"target":34962
	},
	{
		"buffer":0,
		"byteOffset":176136,
		"byteLength":4752,
		"target":34962
	},
	{
		"buffer":0,
		"byteOffset":180888,
		"byteLength":4752,
		"target":34962
	},
	{
		"buffer":0,
		"byteOffset":185640,
		"byteLength":4752,
		"target":34962
	},
	{
		"buffer":0,
		"byteOffset":190392,
		"byteLength":4752,
		"target":34962
	},
	{
		"buffer":0,
		"byteOffset":195144,
		"byteLength":4752,
		"target":34962
	},
	{
		"buffer":0,
		"byteOffset":199896,
		"byteLength":4752,
		"target":34962
	},
	{
		"buffer":0,
		"byteOffset":204648,
		"byteLength":4752,
		"target":34962
	},
	{
		"buffer":0,
		"byteOffset":209400,
		"byteLength":4752,
		"target":34962
	},
	{
		"buffer":0,
		"byteOffset":214152,
		"byteLength":4752,
		"target":34962
	},
	{
		"buffer":0,
		"byteOffset":218904,
		"byteLength":4752,
		"target":34962
	},
	{
		"buffer":0,
		"byteOffset":223656,
		"byteLength":4752,
		"target":34962
	},
	{
		"buffer":0,
		"byteOffset":228408,
		"byteLength":4752,
		"target":34962
	},
	{
		"buffer":0,
		"byteOffset":233160,
		"byteLength":4752,
		"target":34962
	},
	{
		"buffer":0,
		"byteOffset":237912,
		"byteLength":4752,
		"target":34962
	},
	{
		"buffer":0,
		"byteOffset":242664,
		"byteLength":4752,
		"target":34962
	},
	{
		"buffer":0,
		"byteOffset":247416,
		"byteLength":4752,
		"target":34962
	},
	{
		"buffer":0,
		"byteOffset":252168,
		"byteLength":4752,
		"target":34962
	},
	{
		"buffer":0,
		"byteOffset":256920,
		"byteLength":4752,
		"target":34962
	},
	{
		"buffer":0,
		"byteOffset":261672,
		"byteLength":4752,
		"target":34962
	},
	{
		"buffer":1,
		"byteOffset":0,
		"byteLength":11880
	}],
	"animations":[{
		"samplers":[{
			"input":57,
			"interpolation":"LINEAR",
			"output":58
		}],
		"channels":[{
			"sampler":0,
			"target":{
				"node":0,
				"path":"weights"
			}
		}]
	}],
	"buffers":[{
		"uri":"data:application/octet-stream;base64,",
		"byteLength":266424
	},
	{
		"uri":"data:application/octet-stream;base64,",
		"byteLength":11880
	}],
	"images":[{
		"uri":"data:image/jpeg;base64,"
	}],
	"samplers":[{
		"magFilter":9729,
		"minFilter":9729,
		"wrapS":10497,
		"wrapT":10497
	}],
	"textures":[{
		"sampler":0,
		"source":0
	}],
	"materials":[{
		"pbrMetallicRoughness":{
			"baseColorTexture":{
				"index":0
			},
			"baseColorFactor":[0.8,
			0.8,
			0.8,
			1.0],
			"metallicFactor":0.0,
			"roughnessFactor":0.5
		},
		"emissiveFactor":[0.0,
		0.0,
		0.0],
		"alphaMode":"OPAQUE",
		"doubleSided":false,
		"name":"Mat"
	}]
}