{
	"samplers":[{
		"magFilter":9729,
		"minFilter":9729,
		"wrapS":10497,
		"wrapT":10497
	}],
	"asset":{
		"version":"2.0",
		"generator":"Created using the official Cinema 4D glTF Exporter 1.000x284978"
	},
	"scenes":[{
		"nodes":[0]
	}],
	"textures":[{
		"source":0,
		"sampler":0
	}],
	"nodes":[{
		"name":"TANG.1",
		"translation":[0.0,
		52.60591506958008,
		0.0],
		"rotation":[0.0,
		-1.2246468525851679e-16,
		0.0,
		-1.0],
		"scale":[1.0,
		1.0,
		1.0],
		"mesh":0
	}],
	"materials":[{
		"pbrMetallicRoughness":{
			"baseColorTexture":{
				"index":0
			},
			"baseColorFactor":[0.8,
			0.8,
			0.8,
			1.0],
			"metallicFactor":0.0,
			"roughnessFactor":0.5
		},
		"emissiveFactor":[0.0,
		0.0,
		0.0],
		"alphaMode":"OPAQUE",
		"doubleSided":true,
		"name":"Tang_Bake"
	}],
	"meshes":[{
		"name":"TANG.1",
		"primitives":[{
			"targets":[{
				"POSITION":3
			},
			{
				"POSITION":4
			},
			{
				"POSITION":5
			},
			{
				"POSITION":6
			},
			{
				"POSITION":7
			},
			{
				"POSITION":8
			},
			{
				"POSITION":9
			},
			{
				"POSITION":10
			},
			{
				"POSITION":11
			},
			{
				"POSITION":12
			},
			{
				"POSITION":13
			},
			{
				"POSITION":14
			},
			{
				"POSITION":15
			},
			{
				"POSITION":16
			},
			{
				"POSITION":17
			},
			{
				"POSITION":18
			},
			{
				"POSITION":19
			},
			{
				"POSITION":20
			},
			{
				"POSITION":21
			},
			{
				"POSITION":22
			},
			{
				"POSITION":23
			},
			{
				"POSITION":24
			},
			{
				"POSITION":25
			},
			{
				"POSITION":26
			},
			{
				"POSITION":27
			},
			{
				"POSITION":28
			}],
			"attributes":{
				"POSITION":1,
				"TEXCOORD_0":2
			},
			"material":0,
			"indices":0
		}],
		"extras":{
			"targetNames":["curve0",
			"curve1",
			"curve2",
			"curve3",
			"curve4",
			"curve5",
			"curve6",
			"curve7",
			"curve8",
			"curve9",
			"curve10",
			"curve11",
			"curve12",
			"curve13",
			"curve14",
			"curve15",
			"curve16",
			"curve17",
			"curve18",
			"curve19",
			"curve20",
			"curve21",
			"curve22",
			"curve23",
			"curve24",
			"curve25"]
		},
		"weights":[0.0,
		0.0,
		0.0,
		0.0,
		0.0,
		0.0,
		0.0,
		0.0,
		0.0,
		0.0,
		0.0,
		0.0,
		0.0,
		0.0,
		0.0,
		0.0,
		0.0,
		0.0,
		0.0,
		0.0,
		0.0,
		0.0,
		0.0,
		0.0,
		0.0,
		0.0]
	}],
	"accessors":[{
		"bufferView":0,
		"count":1860,
		"type":"SCALAR",
		"componentType":5123,
		"byteOffset":0,
		"min":[0],
		"max":[480]
	},
	{
		"bufferView":1,
		"count":481,
		"type":"VEC3",
		"componentType":5126,
		"byteOffset":0,
		"min":[-40.65256118774414,
		-28.880338668823243,
		-132.0991973876953],
		"max":[40.649559020996097,
		151.3319091796875,
		154.2242431640625]
	},
	{
		"bufferView":1,
		"count":481,
		"type":"VEC2",
		"componentType":5126,
		"byteOffset":12,
		"min":[0.0003258735523559153,
		0.0003258735523559153],
		"max":[0.9765703678131104,
		0.9990243911743164]
	},
	{
		"bufferView":2,
		"count":481,
		"type":"VEC3",
		"componentType":5126,
		"byteOffset":0,
		"min":[0.0,
		0.0,
		0.0],
		"max":[0.0,
		0.0,
		0.0]
	},
	{
		"bufferView":3,
		"count":481,
		"type":"VEC3",
		"componentType":5126,
		"byteOffset":0,
		"min":[-0.24570153653621674,
		-0.01557149738073349,
		-2.411755323410034],
		"max":[20.440439224243165,
		0.010516173206269741,
		2.0709431171417238]
	},
	{
		"bufferView":4,
		"count":481,
		"type":"VEC3",
		"componentType":5126,
		"byteOffset":0,
		"min":[-0.47560054063796999,
		-0.03773990273475647,
		-5.0861101150512699],
		"max":[39.47977828979492,
		0.019895916804671289,
		3.6915786266326906]
	},
	{
		"bufferView":5,
		"count":481,
		"type":"VEC3",
		"componentType":5126,
		"byteOffset":0,
		"min":[-0.6750504970550537,
		-0.06272903829813004,
		-7.722019672393799],
		"max":[55.821990966796878,
		0.027575615793466569,
		4.835505485534668]
	},
	{
		"bufferView":6,
		"count":481,
		"type":"VEC3",
		"componentType":5126,
		"byteOffset":0,
		"min":[-0.8316381573677063,
		-0.0859605148434639,
		-9.99087142944336],
		"max":[68.4775390625,
		0.03537367284297943,
		5.554706573486328]
	},
	{
		"bufferView":7,
		"count":481,
		"type":"VEC3",
		"componentType":5126,
		"byteOffset":0,
		"min":[-0.9358929395675659,
		-0.1031297892332077,
		-11.596441268920899],
		"max":[76.7953109741211,
		0.044219281524419788,
		6.053961753845215]
	},
	{
		"bufferView":8,
		"count":481,
		"type":"VEC3",
		"componentType":5126,
		"byteOffset":0,
		"min":[-0.9816767573356628,
		-0.11108845472335816,
		-12.325151443481446],
		"max":[80.41691589355469,
		0.048401959240436557,
		6.3317461013793949]
	},
	{
		"bufferView":9,
		"count":481,
		"type":"VEC3",
		"componentType":5126,
		"byteOffset":0,
		"min":[-0.9663418531417847,
		-0.10839465260505676,
		-12.07948112487793],
		"max":[79.20612335205078,
		0.04698089510202408,
		6.238968849182129]
	},
	{
		"bufferView":10,
		"count":481,
		"type":"VEC3",
		"componentType":5126,
		"byteOffset":0,
		"min":[-0.8907715678215027,
		-0.09553495794534683,
		-10.892334938049317],
		"max":[73.2070541381836,
		0.04027453437447548,
		5.783957004547119]
	},
	{
		"bufferView":11,
		"count":481,
		"type":"VEC3",
		"componentType":5126,
		"byteOffset":0,
		"min":[-0.7593689560890198,
		-0.07485175877809525,
		-8.922261238098145],
		"max":[62.65895462036133,
		0.030674029141664506,
		5.242786884307861]
	},
	{
		"bufferView":12,
		"count":481,
		"type":"VEC3",
		"componentType":5126,
		"byteOffset":0,
		"min":[-0.5799698233604431,
		-0.0501621812582016,
		-6.429486274719238],
		"max":[48.05791091918945,
		0.023973146453499795,
		4.321371078491211]
	},
	{
		"bufferView":13,
		"count":481,
		"type":"VEC3",
		"componentType":5126,
		"byteOffset":0,
		"min":[-0.36358344554901125,
		-0.02603553980588913,
		-3.7335591316223146],
		"max":[30.222368240356447,
		0.015389402396976948,
		2.9413397312164308]
	},
	{
		"bufferView":14,
		"count":481,
		"type":"VEC3",
		"componentType":5126,
		"byteOffset":0,
		"min":[-0.12384969741106034,
		-0.006785218603909016,
		-1.1703578233718873],
		"max":[10.305331230163575,
		0.005355271976441145,
		1.0864554643630982]
	},
	{
		"bufferView":15,
		"count":481,
		"type":"VEC3",
		"componentType":5126,
		"byteOffset":0,
		"min":[-10.28727912902832,
		-0.007074063178151846,
		-1.1703976392745972],
		"max":[0.12384969741106034,
		0.004649071488529444,
		1.0864031314849854]
	},
	{
		"bufferView":16,
		"count":481,
		"type":"VEC3",
		"componentType":5126,
		"byteOffset":0,
		"min":[-30.066913604736329,
		-0.026890719309449197,
		-3.734583854675293],
		"max":[0.36358344554901125,
		0.013324305415153504,
		2.9411511421203615]
	},
	{
		"bufferView":17,
		"count":481,
		"type":"VEC3",
		"componentType":5126,
		"byteOffset":0,
		"min":[-47.66282272338867,
		-0.0515408031642437,
		-6.858006477355957],
		"max":[0.5799698233604431,
		0.020696314051747323,
		4.321020603179932]
	},
	{
		"bufferView":18,
		"count":481,
		"type":"VEC3",
		"componentType":5126,
		"byteOffset":0,
		"min":[-61.98255157470703,
		-0.07667627185583115,
		-10.897807121276856],
		"max":[0.7593689560890198,
		0.026407690718770028,
		5.242274761199951]
	},
	{
		"bufferView":19,
		"count":481,
		"type":"VEC3",
		"componentType":5126,
		"byteOffset":0,
		"min":[-72.27741241455078,
		-0.09769433736801148,
		-14.54536247253418],
		"max":[0.8907715678215027,
		0.03431060537695885,
		5.783310890197754]
	},
	{
		"bufferView":20,
		"count":481,
		"type":"VEC3",
		"componentType":5126,
		"byteOffset":0,
		"min":[-78.1128921508789,
		-0.11075015366077423,
		-16.871681213378908],
		"max":[0.9663418531417847,
		0.0405326746404171,
		6.2404351234436039]
	},
	{
		"bufferView":21,
		"count":481,
		"type":"VEC3",
		"componentType":5126,
		"byteOffset":0,
		"min":[-79.28890228271485,
		-0.11348408460617066,
		-17.363937377929689],
		"max":[0.9816767573356628,
		0.04185609519481659,
		6.333231449127197]
	},
	{
		"bufferView":22,
		"count":481,
		"type":"VEC3",
		"componentType":5126,
		"byteOffset":0,
		"min":[-75.76956939697266,
		-0.10540594160556793,
		-15.91441822052002],
		"max":[0.9358929395675659,
		0.03796558454632759,
		6.055389404296875]
	},
	{
		"bufferView":23,
		"count":481,
		"type":"VEC3",
		"componentType":5126,
		"byteOffset":0,
		"min":[-67.6667709350586,
		-0.08796826750040055,
		-12.841117858886719],
		"max":[0.8316381573677063,
		0.029792098328471185,
		5.554122447967529]
	},
	{
		"bufferView":24,
		"count":481,
		"type":"VEC3",
		"componentType":5126,
		"byteOffset":0,
		"min":[-55.28710174560547,
		-0.06434246897697449,
		-8.832433700561524],
		"max":[0.6750504970550537,
		0.023772399872541429,
		4.8350725173950199]
	},
	{
		"bufferView":25,
		"count":481,
		"type":"VEC3",
		"componentType":5126,
		"byteOffset":0,
		"min":[-39.213924407958987,
		-0.03886431083083153,
		-5.087427616119385],
		"max":[0.47560054063796999,
		0.01720137894153595,
		3.6913108825683595]
	},
	{
		"bufferView":26,
		"count":481,
		"type":"VEC3",
		"componentType":5126,
		"byteOffset":0,
		"min":[-20.369415283203126,
		-0.01614675298333168,
		-2.4124600887298586],
		"max":[0.24570153653621674,
		0.009117590263485909,
		2.0708274841308595]
	},
	{
		"bufferView":27,
		"count":481,
		"type":"VEC3",
		"componentType":5126,
		"byteOffset":0,
		"min":[-2.042810365310288e-14,
		0.0,
		-1.4210854715202005e-14],
		"max":[7.105427357601002e-15,
		0.0,
		1.4210854715202005e-14]
	},
	{
		"bufferView":28,
		"count":26,
		"type":"SCALAR",
		"componentType":5126,
		"byteOffset":0,
		"min":[0.0],
		"max":[1.0]
	},
	{
		"bufferView":28,
		"count":676,
		"type":"SCALAR",
		"componentType":5126,
		"byteOffset":104,
		"min":[0.0],
		"max":[1.0]
	}],
	"bufferViews":[{
		"buffer":0,
		"byteOffset":0,
		"byteLength":3720,
		"target":34963
	},
	{
		"buffer":0,
		"byteOffset":3720,
		"byteLength":9620,
		"target":34962,
		"byteStride":20
	},
	{
		"buffer":0,
		"byteOffset":13340,
		"byteLength":5772,
		"target":34962
	},
	{
		"buffer":0,
		"byteOffset":19112,
		"byteLength":5772,
		"target":34962
	},
	{
		"buffer":0,
		"byteOffset":24884,
		"byteLength":5772,
		"target":34962
	},
	{
		"buffer":0,
		"byteOffset":30656,
		"byteLength":5772,
		"target":34962
	},
	{
		"buffer":0,
		"byteOffset":36428,
		"byteLength":5772,
		"target":34962
	},
	{
		"buffer":0,
		"byteOffset":42200,
		"byteLength":5772,
		"target":34962
	},
	{
		"buffer":0,
		"byteOffset":47972,
		"byteLength":5772,
		"target":34962
	},
	{
		"buffer":0,
		"byteOffset":53744,
		"byteLength":5772,
		"target":34962
	},
	{
		"buffer":0,
		"byteOffset":59516,
		"byteLength":5772,
		"target":34962
	},
	{
		"buffer":0,
		"byteOffset":65288,
		"byteLength":5772,
		"target":34962
	},
	{
		"buffer":0,
		"byteOffset":71060,
		"byteLength":5772,
		"target":34962
	},
	{
		"buffer":0,
		"byteOffset":76832,
		"byteLength":5772,
		"target":34962
	},
	{
		"buffer":0,
		"byteOffset":82604,
		"byteLength":5772,
		"target":34962
	},
	{
		"buffer":0,
		"byteOffset":88376,
		"byteLength":5772,
		"target":34962
	},
	{
		"buffer":0,
		"byteOffset":94148,
		"byteLength":5772,
		"target":34962
	},
	{
		"buffer":0,
		"byteOffset":99920,
		"byteLength":5772,
		"target":34962
	},
	{
		"buffer":0,
		"byteOffset":105692,
		"byteLength":5772,
		"target":34962
	},
	{
		"buffer":0,
		"byteOffset":111464,
		"byteLength":5772,
		"target":34962
	},
	{
		"buffer":0,
		"byteOffset":117236,
		"byteLength":5772,
		"target":34962
	},
	{
		"buffer":0,
		"byteOffset":123008,
		"byteLength":5772,
		"target":34962
	},
	{
		"buffer":0,
		"byteOffset":128780,
		"byteLength":5772,
		"target":34962
	},
	{
		"buffer":0,
		"byteOffset":134552,
		"byteLength":5772,
		"target":34962
	},
	{
		"buffer":0,
		"byteOffset":140324,
		"byteLength":5772,
		"target":34962
	},
	{
		"buffer":0,
		"byteOffset":146096,
		"byteLength":5772,
		"target":34962
	},
	{
		"buffer":0,
		"byteOffset":151868,
		"byteLength":5772,
		"target":34962
	},
	{
		"buffer":0,
		"byteOffset":157640,
		"byteLength":5772,
		"target":34962
	},
	{
		"buffer":1,
		"byteOffset":0,
		"byteLength":2808
	}],
	"animations":[{
		"samplers":[{
			"input":29,
			"interpolation":"LINEAR",
			"output":30
		}],
		"channels":[{
			"sampler":0,
			"target":{
				"node":0,
				"path":"weights"
			}
		}]
	}],
	"buffers":[{
		"uri":"data:application/octet-stream;base64,",
		"byteLength":163412
	},
	{
		"uri":"data:application/octet-stream;base64,",
		"byteLength":2808
	}],
	"images":[{
		"uri":"data:image/jpeg;base64,"
	}]
}