{
	"samplers":[{
		"magFilter":9729,
		"minFilter":9729,
		"wrapS":10497,
		"wrapT":10497
	}],
	"asset":{
		"version":"2.0",
		"generator":"Created using the official Cinema 4D glTF Exporter 1.000x284978"
	},
	"scenes":[{
		"nodes":[0]
	}],
	"textures":[{
		"source":0,
		"sampler":0
	}],
	"nodes":[{
		"name":"fish.1",
		"translation":[-8.097428511470218e-16,
		120.7878189086914,
		-150.19874572753907],
		"rotation":[0.0,
		0.0,
		0.0,
		-1.0],
		"scale":[1.0,
		1.0,
		1.0],
		"mesh":0
	}],
	"materials":[{
		"pbrMetallicRoughness":{
			"baseColorTexture":{
				"index":0
			},
			"baseColorFactor":[0.96,
			0.96,
			0.96,
			1.0],
			"metallicFactor":0.0,
			"roughnessFactor":0.5
		},
		"emissiveFactor":[0.0,
		0.0,
		0.0],
		"alphaMode":"OPAQUE",
		"doubleSided":true,
		"name":"BAKE"
	}],
	"meshes":[{
		"name":"fish.1",
		"primitives":[{
			"targets":[{
				"POSITION":3
			},
			{
				"POSITION":4
			},
			{
				"POSITION":5
			},
			{
				"POSITION":6
			},
			{
				"POSITION":7
			},
			{
				"POSITION":8
			},
			{
				"POSITION":9
			},
			{
				"POSITION":10
			},
			{
				"POSITION":11
			},
			{
				"POSITION":12
			},
			{
				"POSITION":13
			},
			{
				"POSITION":14
			},
			{
				"POSITION":15
			},
			{
				"POSITION":16
			},
			{
				"POSITION":17
			},
			{
				"POSITION":18
			},
			{
				"POSITION":19
			},
			{
				"POSITION":20
			},
			{
				"POSITION":21
			},
			{
				"POSITION":22
			},
			{
				"POSITION":23
			},
			{
				"POSITION":24
			},
			{
				"POSITION":25
			},
			{
				"POSITION":26
			},
			{
				"POSITION":27
			},
			{
				"POSITION":28
			}],
			"attributes":{
				"POSITION":1,
				"TEXCOORD_0":2
			},
			"material":0,
			"indices":0
		}],
		"extras":{
			"targetNames":["curve0",
			"curve1",
			"curve2",
			"curve3",
			"curve4",
			"curve5",
			"curve6",
			"curve7",
			"curve8",
			"curve9",
			"curve10",
			"curve11",
			"curve12",
			"curve13",
			"curve14",
			"curve15",
			"curve16",
			"curve17",
			"curve18",
			"curve19",
			"curve20",
			"curve21",
			"curve22",
			"curve23",
			"curve24",
			"curve25"]
		},
		"weights":[0.0,
		0.0,
		0.0,
		0.0,
		0.0,
		0.0,
		0.0,
		0.0,
		0.0,
		0.0,
		0.0,
		0.0,
		0.0,
		0.0,
		0.0,
		0.0,
		0.0,
		0.0,
		0.0,
		0.0,
		0.0,
		0.0,
		0.0,
		0.0,
		0.0,
		0.0]
	}],
	"accessors":[{
		"bufferView":0,
		"count":1512,
		"type":"SCALAR",
		"componentType":5123,
		"byteOffset":0,
		"min":[0],
		"max":[495]
	},
	{
		"bufferView":1,
		"count":496,
		"type":"VEC3",
		"componentType":5126,
		"byteOffset":0,
		"min":[-48.89429473876953,
		-87.6070785522461,
		-20.33013153076172],
		"max":[48.89429473876953,
		116.29129028320313,
		317.8292541503906]
	},
	{
		"bufferView":1,
		"count":496,
		"type":"VEC2",
		"componentType":5126,
		"byteOffset":12,
		"min":[0.0004912404692731798,
		0.0004912404110655189],
		"max":[0.9990243911743164,
		0.9460320472717285]
	},
	{
		"bufferView":2,
		"count":496,
		"type":"VEC3",
		"componentType":5126,
		"byteOffset":0,
		"min":[0.0,
		0.0,
		0.0],
		"max":[0.0,
		0.0,
		0.0]
	},
	{
		"bufferView":3,
		"count":496,
		"type":"VEC3",
		"componentType":5126,
		"byteOffset":0,
		"min":[-0.5802604556083679,
		-0.16107277572155,
		-1.7947293519973755],
		"max":[12.355582237243653,
		0.1026192381978035,
		1.27777099609375]
	},
	{
		"bufferView":4,
		"count":496,
		"type":"VEC3",
		"componentType":5126,
		"byteOffset":0,
		"min":[-1.293344497680664,
		-0.36934414505958559,
		-4.2005181312561039],
		"max":[23.706010818481447,
		0.21695061028003694,
		2.7068209648132326]
	},
	{
		"bufferView":5,
		"count":496,
		"type":"VEC3",
		"componentType":5126,
		"byteOffset":0,
		"min":[-2.0063374042510988,
		-0.6466113924980164,
		-7.188438415527344],
		"max":[33.260108947753909,
		0.3290271461009979,
		4.112118721008301]
	},
	{
		"bufferView":6,
		"count":496,
		"type":"VEC3",
		"componentType":5126,
		"byteOffset":0,
		"min":[-2.60457444190979,
		-0.9232749342918396,
		-10.379796028137207],
		"max":[40.498809814453128,
		0.42446169257164,
		5.311797618865967]
	},
	{
		"bufferView":7,
		"count":496,
		"type":"VEC3",
		"componentType":5126,
		"byteOffset":0,
		"min":[-3.0125491619110109,
		-1.132204294204712,
		-12.857170104980469],
		"max":[45.16344451904297,
		0.49122971296310427,
		6.1526875495910648]
	},
	{
		"bufferView":8,
		"count":496,
		"type":"VEC3",
		"componentType":5126,
		"byteOffset":0,
		"min":[-3.192591905593872,
		-1.2300161123275757,
		-14.022100448608399],
		"max":[47.1683464050293,
		0.5212939977645874,
		6.531735420227051]
	},
	{
		"bufferView":9,
		"count":496,
		"type":"VEC3",
		"componentType":5126,
		"byteOffset":0,
		"min":[-3.1322755813598635,
		-1.1968488693237305,
		-13.626753807067871],
		"max":[46.499916076660159,
		0.5111759901046753,
		6.404139518737793]
	},
	{
		"bufferView":10,
		"count":496,
		"type":"VEC3",
		"componentType":5126,
		"byteOffset":0,
		"min":[-2.8354549407958986,
		-1.0394034385681153,
		-11.75479507446289],
		"max":[43.161014556884769,
		0.4620354175567627,
		5.784852981567383]
	},
	{
		"bufferView":11,
		"count":496,
		"type":"VEC3",
		"componentType":5126,
		"byteOffset":0,
		"min":[-2.325514078140259,
		-0.789956271648407,
		-8.809889793395996],
		"max":[37.190364837646487,
		0.3796568214893341,
		4.748234272003174]
	},
	{
		"bufferView":12,
		"count":496,
		"type":"VEC3",
		"componentType":5126,
		"byteOffset":0,
		"min":[-1.6578117609024048,
		-0.5052476525306702,
		-5.546182632446289],
		"max":[28.746776580810548,
		0.2741974890232086,
		3.424118757247925]
	},
	{
		"bufferView":13,
		"count":496,
		"type":"VEC3",
		"componentType":5126,
		"byteOffset":0,
		"min":[-0.9285255670547485,
		-0.2611117660999298,
		-2.9428868293762209],
		"max":[18.211685180664064,
		0.1591455638408661,
		1.9836804866790772]
	},
	{
		"bufferView":14,
		"count":496,
		"type":"VEC3",
		"componentType":5126,
		"byteOffset":0,
		"min":[-0.26554355025291445,
		-0.07304149866104126,
		-0.856967568397522],
		"max":[6.2452263832092289,
		0.049079425632953647,
		0.610439121723175]
	},
	{
		"bufferView":15,
		"count":496,
		"type":"VEC3",
		"componentType":5126,
		"byteOffset":0,
		"min":[-6.260262489318848,
		-0.043469350785017017,
		-0.5393742918968201],
		"max":[0.20886453986167909,
		0.07489792257547379,
		0.9405508637428284]
	},
	{
		"bufferView":16,
		"count":496,
		"type":"VEC3",
		"componentType":5126,
		"byteOffset":0,
		"min":[-18.340913772583009,
		-0.11165276169776917,
		-1.7134406566619874],
		"max":[0.6157152652740479,
		0.2379942536354065,
		2.981509208679199]
	},
	{
		"bufferView":17,
		"count":496,
		"type":"VEC3",
		"componentType":5126,
		"byteOffset":0,
		"min":[-29.074081420898439,
		-0.2463243305683136,
		-3.720534324645996],
		"max":[0.9862304329872131,
		0.40375590324401858,
		5.047743797302246]
	},
	{
		"bufferView":18,
		"count":496,
		"type":"VEC3",
		"componentType":5126,
		"byteOffset":0,
		"min":[-37.748435974121097,
		-0.43844708800315859,
		-6.544459342956543],
		"max":[1.2961026430130005,
		0.5527927279472351,
		6.899631023406982]
	},
	{
		"bufferView":19,
		"count":496,
		"type":"VEC3",
		"componentType":5126,
		"byteOffset":0,
		"min":[-43.9251823425293,
		-0.6288865804672241,
		-9.095317840576172],
		"max":[1.5247820615768433,
		0.6677177548408508,
		8.324189186096192]
	},
	{
		"bufferView":20,
		"count":496,
		"type":"VEC3",
		"componentType":5126,
		"byteOffset":0,
		"min":[-47.396385192871097,
		-0.7530368566513062,
		-10.742403984069825],
		"max":[1.656999945640564,
		0.7357420325279236,
		9.166022300720215]
	},
	{
		"bufferView":21,
		"count":496,
		"type":"VEC3",
		"componentType":5126,
		"byteOffset":0,
		"min":[-48.09286880493164,
		-0.7795131206512451,
		-11.092411041259766],
		"max":[1.683895230293274,
		0.7497029304504395,
		9.338671684265137]
	},
	{
		"bufferView":22,
		"count":496,
		"type":"VEC3",
		"componentType":5126,
		"byteOffset":0,
		"min":[-46.00541687011719,
		-0.7017449140548706,
		-10.063151359558106],
		"max":[1.6036627292633057,
		0.7081755995750427,
		8.824995040893555]
	},
	{
		"bufferView":23,
		"count":496,
		"type":"VEC3",
		"componentType":5126,
		"byteOffset":0,
		"min":[-41.16642379760742,
		-0.5391528010368347,
		-7.897701263427734],
		"max":[1.4216848611831666,
		0.6154450178146362,
		7.676603317260742]
	},
	{
		"bufferView":24,
		"count":496,
		"type":"VEC3",
		"componentType":5126,
		"byteOffset":0,
		"min":[-33.70233154296875,
		-0.333570659160614,
		-5.121283531188965],
		"max":[1.1501388549804688,
		0.48153728246688845,
		6.014884948730469]
	},
	{
		"bufferView":25,
		"count":496,
		"type":"VEC3",
		"componentType":5126,
		"byteOffset":0,
		"min":[-23.92666244506836,
		-0.17513854801654817,
		-2.601837158203125],
		"max":[0.8071020245552063,
		0.32175904512405398,
		4.026561260223389]
	},
	{
		"bufferView":26,
		"count":496,
		"type":"VEC3",
		"componentType":5126,
		"byteOffset":0,
		"min":[-12.41469669342041,
		-0.0805678591132164,
		-0.9984371066093445],
		"max":[0.4152136445045471,
		0.15492556989192964,
		1.9431074857711793]
	},
	{
		"bufferView":27,
		"count":496,
		"type":"VEC3",
		"componentType":5126,
		"byteOffset":0,
		"min":[-1.205223444780473e-14,
		-3.552713678800501e-15,
		-5.684341886080802e-14],
		"max":[1.7763568394002506e-15,
		1.1102230246251566e-16,
		5.684341886080802e-14]
	},
	{
		"bufferView":28,
		"count":26,
		"type":"SCALAR",
		"componentType":5126,
		"byteOffset":0,
		"min":[0.0],
		"max":[1.0]
	},
	{
		"bufferView":28,
		"count":676,
		"type":"SCALAR",
		"componentType":5126,
		"byteOffset":104,
		"min":[0.0],
		"max":[1.0]
	}],
	"bufferViews":[{
		"buffer":0,
		"byteOffset":0,
		"byteLength":3024,
		"target":34963
	},
	{
		"buffer":0,
		"byteOffset":3024,
		"byteLength":9920,
		"target":34962,
		"byteStride":20
	},
	{
		"buffer":0,
		"byteOffset":12944,
		"byteLength":5952,
		"target":34962
	},
	{
		"buffer":0,
		"byteOffset":18896,
		"byteLength":5952,
		"target":34962
	},
	{
		"buffer":0,
		"byteOffset":24848,
		"byteLength":5952,
		"target":34962
	},
	{
		"buffer":0,
		"byteOffset":30800,
		"byteLength":5952,
		"target":34962
	},
	{
		"buffer":0,
		"byteOffset":36752,
		"byteLength":5952,
		"target":34962
	},
	{
		"buffer":0,
		"byteOffset":42704,
		"byteLength":5952,
		"target":34962
	},
	{
		"buffer":0,
		"byteOffset":48656,
		"byteLength":5952,
		"target":34962
	},
	{
		"buffer":0,
		"byteOffset":54608,
		"byteLength":5952,
		"target":34962
	},
	{
		"buffer":0,
		"byteOffset":60560,
		"byteLength":5952,
		"target":34962
	},
	{
		"buffer":0,
		"byteOffset":66512,
		"byteLength":5952,
		"target":34962
	},
	{
		"buffer":0,
		"byteOffset":72464,
		"byteLength":5952,
		"target":34962
	},
	{
		"buffer":0,
		"byteOffset":78416,
		"byteLength":5952,
		"target":34962
	},
	{
		"buffer":0,
		"byteOffset":84368,
		"byteLength":5952,
		"target":34962
	},
	{
		"buffer":0,
		"byteOffset":90320,
		"byteLength":5952,
		"target":34962
	},
	{
		"buffer":0,
		"byteOffset":96272,
		"byteLength":5952,
		"target":34962
	},
	{
		"buffer":0,
		"byteOffset":102224,
		"byteLength":5952,
		"target":34962
	},
	{
		"buffer":0,
		"byteOffset":108176,
		"byteLength":5952,
		"target":34962
	},
	{
		"buffer":0,
		"byteOffset":114128,
		"byteLength":5952,
		"target":34962
	},
	{
		"buffer":0,
		"byteOffset":120080,
		"byteLength":5952,
		"target":34962
	},
	{
		"buffer":0,
		"byteOffset":126032,
		"byteLength":5952,
		"target":34962
	},
	{
		"buffer":0,
		"byteOffset":131984,
		"byteLength":5952,
		"target":34962
	},
	{
		"buffer":0,
		"byteOffset":137936,
		"byteLength":5952,
		"target":34962
	},
	{
		"buffer":0,
		"byteOffset":143888,
		"byteLength":5952,
		"target":34962
	},
	{
		"buffer":0,
		"byteOffset":149840,
		"byteLength":5952,
		"target":34962
	},
	{
		"buffer":0,
		"byteOffset":155792,
		"byteLength":5952,
		"target":34962
	},
	{
		"buffer":0,
		"byteOffset":161744,
		"byteLength":5952,
		"target":34962
	},
	{
		"buffer":1,
		"byteOffset":0,
		"byteLength":2808
	}],
	"animations":[{
		"samplers":[{
			"input":29,
			"interpolation":"LINEAR",
			"output":30
		}],
		"channels":[{
			"sampler":0,
			"target":{
				"node":0,
				"path":"weights"
			}
		}]
	}],
	"buffers":[{
		"uri":"data:application/octet-stream;base64,",
		"byteLength":167696
	},
	{
		"uri":"data:application/octet-stream;base64,",
		"byteLength":2808
	}],
	"images":[{
		"uri":"data:image/jpeg;base64,"
	}]
}