{
	"samplers":[{
		"magFilter":9729,
		"minFilter":9729,
		"wrapS":10497,
		"wrapT":10497
	}],
	"asset":{
		"version":"2.0",
		"generator":"Created using the official Cinema 4D glTF Exporter 1.000x284978"
	},
	"scenes":[{
		"nodes":[0]
	}],
	"textures":[{
		"source":0,
		"sampler":0
	}],
	"nodes":[{
		"name":"Null.1 (Copy).1",
		"translation":[0.0,
		0.0,
		0.0],
		"rotation":[0.0,
		0.0,
		0.0,
		-1.0],
		"scale":[1.0,
		1.0,
		1.0],
		"mesh":0
	}],
	"materials":[{
		"pbrMetallicRoughness":{
			"baseColorTexture":{
				"index":0
			},
			"baseColorFactor":[0.8,
			0.8,
			0.8,
			1.0],
			"metallicFactor":0.0,
			"roughnessFactor":0.5
		},
		"emissiveFactor":[0.0,
		0.0,
		0.0],
		"alphaMode":"OPAQUE",
		"doubleSided":true,
		"name":"BAKE"
	}],
	"meshes":[{
		"name":"Null.1 (Copy).1",
		"primitives":[{
			"targets":[{
				"POSITION":3
			},
			{
				"POSITION":4
			},
			{
				"POSITION":5
			},
			{
				"POSITION":6
			},
			{
				"POSITION":7
			},
			{
				"POSITION":8
			},
			{
				"POSITION":9
			},
			{
				"POSITION":10
			},
			{
				"POSITION":11
			},
			{
				"POSITION":12
			},
			{
				"POSITION":13
			},
			{
				"POSITION":14
			},
			{
				"POSITION":15
			},
			{
				"POSITION":16
			},
			{
				"POSITION":17
			},
			{
				"POSITION":18
			},
			{
				"POSITION":19
			},
			{
				"POSITION":20
			},
			{
				"POSITION":21
			},
			{
				"POSITION":22
			},
			{
				"POSITION":23
			},
			{
				"POSITION":24
			},
			{
				"POSITION":25
			},
			{
				"POSITION":26
			},
			{
				"POSITION":27
			},
			{
				"POSITION":28
			},
			{
				"POSITION":29
			},
			{
				"POSITION":30
			},
			{
				"POSITION":31
			},
			{
				"POSITION":32
			},
			{
				"POSITION":33
			}],
			"attributes":{
				"POSITION":1,
				"TEXCOORD_0":2
			},
			"material":0,
			"indices":0
		}],
		"extras":{
			"targetNames":["curve0",
			"curve1",
			"curve2",
			"curve3",
			"curve4",
			"curve5",
			"curve6",
			"curve7",
			"curve8",
			"curve9",
			"curve10",
			"curve11",
			"curve12",
			"curve13",
			"curve14",
			"curve15",
			"curve16",
			"curve17",
			"curve18",
			"curve19",
			"curve20",
			"curve21",
			"curve22",
			"curve23",
			"curve24",
			"curve25",
			"curve26",
			"curve27",
			"curve28",
			"curve29",
			"curve30"]
		},
		"weights":[0.0,
		0.0,
		0.0,
		0.0,
		0.0,
		0.0,
		0.0,
		0.0,
		0.0,
		0.0,
		0.0,
		0.0,
		0.0,
		0.0,
		0.0,
		0.0,
		0.0,
		0.0,
		0.0,
		0.0,
		0.0,
		0.0,
		0.0,
		0.0,
		0.0,
		0.0,
		0.0,
		0.0,
		0.0,
		0.0,
		0.0]
	}],
	"accessors":[{
		"bufferView":0,
		"count":2862,
		"type":"SCALAR",
		"componentType":5123,
		"byteOffset":0,
		"min":[0],
		"max":[733]
	},
	{
		"bufferView":1,
		"count":734,
		"type":"VEC3",
		"componentType":5126,
		"byteOffset":0,
		"min":[-35.99482727050781,
		-72.12103271484375,
		-125.30497741699219],
		"max":[48.990943908691409,
		51.111454010009769,
		180.19778442382813]
	},
	{
		"bufferView":1,
		"count":734,
		"type":"VEC2",
		"componentType":5126,
		"byteOffset":12,
		"min":[0.00032577180536463857,
		0.00032577180536463857],
		"max":[0.9990243911743164,
		0.9910751581192017]
	},
	{
		"bufferView":2,
		"count":734,
		"type":"VEC3",
		"componentType":5126,
		"byteOffset":0,
		"min":[-48.98469161987305,
		-0.1533423364162445,
		-2.3051199913024904],
		"max":[0.8277037739753723,
		0.752291738986969,
		11.308832168579102]
	},
	{
		"bufferView":3,
		"count":734,
		"type":"VEC3",
		"componentType":5126,
		"byteOffset":0,
		"min":[-36.77984619140625,
		-0.11508314311504364,
		-1.7299884557724],
		"max":[0.6311884522438049,
		0.7079373598098755,
		10.642074584960938]
	},
	{
		"bufferView":4,
		"count":734,
		"type":"VEC3",
		"componentType":5126,
		"byteOffset":0,
		"min":[-25.260459899902345,
		-0.07938464730978012,
		-1.1933504343032838],
		"max":[0.4419187307357788,
		0.5833060145378113,
		8.768552780151368]
	},
	{
		"bufferView":5,
		"count":734,
		"type":"VEC3",
		"componentType":5126,
		"byteOffset":0,
		"min":[-15.02225112915039,
		-0.04757427051663399,
		-0.715160608291626],
		"max":[0.26847773790359499,
		0.40139615535736086,
		6.03399133682251]
	},
	{
		"bufferView":6,
		"count":734,
		"type":"VEC3",
		"componentType":5126,
		"byteOffset":0,
		"min":[-6.5097880363464359,
		-0.020812945440411569,
		-0.3128708004951477],
		"max":[0.11884951591491699,
		0.1949656903743744,
		2.930823564529419]
	},
	{
		"bufferView":7,
		"count":734,
		"type":"VEC3",
		"componentType":5126,
		"byteOffset":0,
		"min":[0.0,
		0.0,
		0.0],
		"max":[0.0,
		0.0,
		0.0]
	},
	{
		"bufferView":8,
		"count":734,
		"type":"VEC3",
		"componentType":5126,
		"byteOffset":0,
		"min":[-0.08249343186616898,
		-0.15069575607776643,
		-2.2653353214263918],
		"max":[4.371803283691406,
		0.01421788614243269,
		0.21373049914836884]
	},
	{
		"bufferView":9,
		"count":734,
		"type":"VEC3",
		"componentType":5126,
		"byteOffset":0,
		"min":[-0.12473942339420319,
		-0.23256570100784303,
		-3.4960460662841799],
		"max":[6.560873031616211,
		0.021427126601338388,
		0.32210347056388857]
	},
	{
		"bufferView":10,
		"count":734,
		"type":"VEC3",
		"componentType":5126,
		"byteOffset":0,
		"min":[-0.12473942339420319,
		-0.23256570100784303,
		-3.4960460662841799],
		"max":[6.560873031616211,
		0.021427126601338388,
		0.32210347056388857]
	},
	{
		"bufferView":11,
		"count":734,
		"type":"VEC3",
		"componentType":5126,
		"byteOffset":0,
		"min":[-0.08249343186616898,
		-0.15069575607776643,
		-2.2653353214263918],
		"max":[4.371803283691406,
		0.01421788614243269,
		0.21373049914836884]
	},
	{
		"bufferView":12,
		"count":734,
		"type":"VEC3",
		"componentType":5126,
		"byteOffset":0,
		"min":[0.0,
		0.0,
		-2.842170943040401e-14],
		"max":[0.0,
		0.0,
		0.0]
	},
	{
		"bufferView":13,
		"count":734,
		"type":"VEC3",
		"componentType":5126,
		"byteOffset":0,
		"min":[-6.5097880363464359,
		-0.020812945440411569,
		-0.3128708004951477],
		"max":[0.11884951591491699,
		0.1949656903743744,
		2.930823564529419]
	},
	{
		"bufferView":14,
		"count":734,
		"type":"VEC3",
		"componentType":5126,
		"byteOffset":0,
		"min":[-15.02225112915039,
		-0.04757427051663399,
		-0.715160608291626],
		"max":[0.26847773790359499,
		0.40139615535736086,
		6.03399133682251]
	},
	{
		"bufferView":15,
		"count":734,
		"type":"VEC3",
		"componentType":5126,
		"byteOffset":0,
		"min":[-25.260459899902345,
		-0.07938464730978012,
		-1.1933504343032838],
		"max":[0.4419187307357788,
		0.5833060145378113,
		8.768552780151368]
	},
	{
		"bufferView":16,
		"count":734,
		"type":"VEC3",
		"componentType":5126,
		"byteOffset":0,
		"min":[-36.77984619140625,
		-0.11508314311504364,
		-1.7299884557724],
		"max":[0.6311884522438049,
		0.7079373598098755,
		10.642074584960938]
	},
	{
		"bufferView":17,
		"count":734,
		"type":"VEC3",
		"componentType":5126,
		"byteOffset":0,
		"min":[-48.98469161987305,
		-0.1533423364162445,
		-2.3051199913024904],
		"max":[0.8277037739753723,
		0.752291738986969,
		11.308832168579102]
	},
	{
		"bufferView":18,
		"count":734,
		"type":"VEC3",
		"componentType":5126,
		"byteOffset":0,
		"min":[-61.189395904541019,
		-0.19228455424308778,
		-2.890519142150879],
		"max":[1.0227196216583253,
		0.7080820202827454,
		10.64424991607666]
	},
	{
		"bufferView":19,
		"count":734,
		"type":"VEC3",
		"componentType":5126,
		"byteOffset":0,
		"min":[-72.70838928222656,
		-0.23038995265960694,
		-3.46333909034729],
		"max":[1.2077505588531495,
		0.5835868716239929,
		8.772775650024414]
	},
	{
		"bufferView":20,
		"count":734,
		"type":"VEC3",
		"componentType":5126,
		"byteOffset":0,
		"min":[-82.94602966308594,
		-0.2678152620792389,
		-4.025935173034668],
		"max":[1.3749475479125977,
		0.40885090827941897,
		6.146054744720459]
	},
	{
		"bufferView":21,
		"count":734,
		"type":"VEC3",
		"componentType":5126,
		"byteOffset":0,
		"min":[-91.45784759521485,
		-0.3143884539604187,
		-4.726047515869141],
		"max":[1.517406940460205,
		0.37957805395126345,
		5.706010818481445]
	},
	{
		"bufferView":22,
		"count":734,
		"type":"VEC3",
		"componentType":5126,
		"byteOffset":0,
		"min":[-97.96702575683594,
		-0.352927029132843,
		-5.3053789138793949],
		"max":[1.629402756690979,
		0.3529270589351654,
		5.305379390716553]
	},
	{
		"bufferView":23,
		"count":734,
		"type":"VEC3",
		"componentType":5126,
		"byteOffset":0,
		"min":[-102.33882904052735,
		-0.4055021405220032,
		-6.095714569091797],
		"max":[1.7118961811065674,
		0.35695016384124758,
		5.365856647491455]
	},
	{
		"bufferView":24,
		"count":734,
		"type":"VEC3",
		"componentType":5126,
		"byteOffset":0,
		"min":[-104.52790069580078,
		-0.43580156564712527,
		-6.551191329956055],
		"max":[1.754142165184021,
		0.358447790145874,
		5.388369560241699]
	},
	{
		"bufferView":25,
		"count":734,
		"type":"VEC3",
		"componentType":5126,
		"byteOffset":0,
		"min":[-104.52790069580078,
		-0.43580156564712527,
		-6.551191329956055],
		"max":[1.754142165184021,
		0.358447790145874,
		5.388369560241699]
	},
	{
		"bufferView":26,
		"count":734,
		"type":"VEC3",
		"componentType":5126,
		"byteOffset":0,
		"min":[-102.33882904052735,
		-0.4055021405220032,
		-6.095714569091797],
		"max":[1.7118961811065674,
		0.35695016384124758,
		5.365856647491455]
	},
	{
		"bufferView":27,
		"count":734,
		"type":"VEC3",
		"componentType":5126,
		"byteOffset":0,
		"min":[-97.96702575683594,
		-0.352927029132843,
		-5.3053789138793949],
		"max":[1.629402756690979,
		0.3529270589351654,
		5.305379390716553]
	},
	{
		"bufferView":28,
		"count":734,
		"type":"VEC3",
		"componentType":5126,
		"byteOffset":0,
		"min":[-91.45784759521485,
		-0.3143884539604187,
		-4.726047515869141],
		"max":[1.517406940460205,
		0.37957805395126345,
		5.706010818481445]
	},
	{
		"bufferView":29,
		"count":734,
		"type":"VEC3",
		"componentType":5126,
		"byteOffset":0,
		"min":[-82.94602966308594,
		-0.2678152620792389,
		-4.025935173034668],
		"max":[1.3749475479125977,
		0.40885090827941897,
		6.146054744720459]
	},
	{
		"bufferView":30,
		"count":734,
		"type":"VEC3",
		"componentType":5126,
		"byteOffset":0,
		"min":[-72.70838928222656,
		-0.23038995265960694,
		-3.46333909034729],
		"max":[1.2077505588531495,
		0.5835868716239929,
		8.772775650024414]
	},
	{
		"bufferView":31,
		"count":734,
		"type":"VEC3",
		"componentType":5126,
		"byteOffset":0,
		"min":[-61.189395904541019,
		-0.19228455424308778,
		-2.890519142150879],
		"max":[1.0227196216583253,
		0.7080820202827454,
		10.64424991607666]
	},
	{
		"bufferView":32,
		"count":734,
		"type":"VEC3",
		"componentType":5126,
		"byteOffset":0,
		"min":[-48.98469161987305,
		-0.1533423364162445,
		-2.3051199913024904],
		"max":[0.8277037739753723,
		0.752291738986969,
		11.308832168579102]
	},
	{
		"bufferView":33,
		"count":31,
		"type":"SCALAR",
		"componentType":5126,
		"byteOffset":0,
		"min":[0.0],
		"max":[1.0]
	},
	{
		"bufferView":33,
		"count":961,
		"type":"SCALAR",
		"componentType":5126,
		"byteOffset":124,
		"min":[0.0],
		"max":[1.0]
	}],
	"bufferViews":[{
		"buffer":0,
		"byteOffset":0,
		"byteLength":5724,
		"target":34963
	},
	{
		"buffer":0,
		"byteOffset":5724,
		"byteLength":14680,
		"target":34962,
		"byteStride":20
	},
	{
		"buffer":0,
		"byteOffset":20404,
		"byteLength":8808,
		"target":34962
	},
	{
		"buffer":0,
		"byteOffset":29212,
		"byteLength":8808,
		"target":34962
	},
	{
		"buffer":0,
		"byteOffset":38020,
		"byteLength":8808,
		"target":34962
	},
	{
		"buffer":0,
		"byteOffset":46828,
		"byteLength":8808,
		"target":34962
	},
	{
		"buffer":0,
		"byteOffset":55636,
		"byteLength":8808,
		"target":34962
	},
	{
		"buffer":0,
		"byteOffset":64444,
		"byteLength":8808,
		"target":34962
	},
	{
		"buffer":0,
		"byteOffset":73252,
		"byteLength":8808,
		"target":34962
	},
	{
		"buffer":0,
		"byteOffset":82060,
		"byteLength":8808,
		"target":34962
	},
	{
		"buffer":0,
		"byteOffset":90868,
		"byteLength":8808,
		"target":34962
	},
	{
		"buffer":0,
		"byteOffset":99676,
		"byteLength":8808,
		"target":34962
	},
	{
		"buffer":0,
		"byteOffset":108484,
		"byteLength":8808,
		"target":34962
	},
	{
		"buffer":0,
		"byteOffset":117292,
		"byteLength":8808,
		"target":34962
	},
	{
		"buffer":0,
		"byteOffset":126100,
		"byteLength":8808,
		"target":34962
	},
	{
		"buffer":0,
		"byteOffset":134908,
		"byteLength":8808,
		"target":34962
	},
	{
		"buffer":0,
		"byteOffset":143716,
		"byteLength":8808,
		"target":34962
	},
	{
		"buffer":0,
		"byteOffset":152524,
		"byteLength":8808,
		"target":34962
	},
	{
		"buffer":0,
		"byteOffset":161332,
		"byteLength":8808,
		"target":34962
	},
	{
		"buffer":0,
		"byteOffset":170140,
		"byteLength":8808,
		"target":34962
	},
	{
		"buffer":0,
		"byteOffset":178948,
		"byteLength":8808,
		"target":34962
	},
	{
		"buffer":0,
		"byteOffset":187756,
		"byteLength":8808,
		"target":34962
	},
	{
		"buffer":0,
		"byteOffset":196564,
		"byteLength":8808,
		"target":34962
	},
	{
		"buffer":0,
		"byteOffset":205372,
		"byteLength":8808,
		"target":34962
	},
	{
		"buffer":0,
		"byteOffset":214180,
		"byteLength":8808,
		"target":34962
	},
	{
		"buffer":0,
		"byteOffset":222988,
		"byteLength":8808,
		"target":34962
	},
	{
		"buffer":0,
		"byteOffset":231796,
		"byteLength":8808,
		"target":34962
	},
	{
		"buffer":0,
		"byteOffset":240604,
		"byteLength":8808,
		"target":34962
	},
	{
		"buffer":0,
		"byteOffset":249412,
		"byteLength":8808,
		"target":34962
	},
	{
		"buffer":0,
		"byteOffset":258220,
		"byteLength":8808,
		"target":34962
	},
	{
		"buffer":0,
		"byteOffset":267028,
		"byteLength":8808,
		"target":34962
	},
	{
		"buffer":0,
		"byteOffset":275836,
		"byteLength":8808,
		"target":34962
	},
	{
		"buffer":0,
		"byteOffset":284644,
		"byteLength":8808,
		"target":34962
	},
	{
		"buffer":1,
		"byteOffset":0,
		"byteLength":3968
	}],
	"animations":[{
		"samplers":[{
			"input":34,
			"interpolation":"LINEAR",
			"output":35
		}],
		"channels":[{
			"sampler":0,
			"target":{
				"node":0,
				"path":"weights"
			}
		}]
	}],
	"buffers":[{
		"uri":"data:application/octet-stream;base64,",
		"byteLength":293452
	},
	{
		"uri":"data:application/octet-stream;base64,",
		"byteLength":3968
	}],
	"images":[{
		"uri":"data:image/jpeg;base64,"
	}]
}